<svg xmlns="http://www.w3.org/2000/svg" viewBox="0 0 299.55 144.35">

<defs><style>.cls-1{fill:#c9c;}.cls-2{fill:#96c;}.cls-3{fill:#edd5c6;}.cls-4{fill:#303;}.cls-5{fill:#336;}.cls-6{fill:#306;}.cls-7{fill:#f4e7dc;}.cls-8{fill:#d7b0a8;}</style></defs>

<title>hwk04-svg2-cloud1</title><g id="Layer_2" data-name="Layer 2">
<path class="cls-1" d="M297.1,74.31l-.32-.63A13,13,0,0,1,290.93,70a22.65,22.65,0,0,1-5-3v.32c-3.24,1.15-6.55-1.88-10.12.68-1.67,1.2-8.08,5.16-6-3.3.09-.35-.82-.89-1.18-1.41a7.78,7.78,0,0,0-3.77-3.09A16.37,16.37,0,0,1,257,62c-.65,0-1.27-.12-1.91-.19h0c-.77-.09-1.55-.19-2.3-.33h0c-1.19-.23-2.38-.5-3.55-.81-.82-.21-1.65-.42-2.48-.65a.67.67,0,0,1-.18.07l-.09,0h0c-1.61.73-3.67.35-6.13-1.07l-.69-.38-.06,0h0c-2.54-1.41-5.1-2.47-8.11-1.75h0a9.26,9.26,0,0,0-1,.27,2.45,2.45,0,0,1-2.86-.62.88.88,0,0,1-.12-.19,1.61,1.61,0,0,1-.24-.36l.08,0h0l-.08,0a3.51,3.51,0,0,1-.17-.66h-3c-6.1,1.72-12.4,2.6-17.45,7.32-2.09,2-4.12,4.45-6.55,5.74-8.34,4.44-8,12-8,19.53v.32h0l-.06.12a1.33,1.33,0,0,1-.24.39h0c-1.7,2.88-4.78,1.71-6.86,1.24a12.56,12.56,0,0,0-1.55-.22,14.29,14.29,0,0,0-8.25,1.45l7.8-1.38-7.8,1.38c-1.49-.75-2.66-2.32-1.79-3.54,3.62-5.15,1-8.37-2.9-11.49-.35-.28-.16-1.24-.21-1.89a23.38,23.38,0,0,0-.2-2.38,23.08,23.08,0,0,1-8.34-2.36,16.94,16.94,0,0,0-5.35-1.36l-.17.1a16,16,0,0,1-3.79,1.79,6.14,6.14,0,0,1-4.33,4.17c-1,.28-.66,2,.3,2.43,2.53,1.17,1.74,3.2,2.14,5.23.95,4.79-1.38,4.12-4.26,3.31h0l-.21-1.94c.21-4.8-3.27-9.13-8.84-11h-3c-2.62-.59-1.95-2.71-2-4.42v-1l-.92-.5A34.44,34.44,0,0,1,119.63,55a11.66,11.66,0,0,1-5,1c-.17,0-.34,0-.5,0,0,.74.09,1.5,0,2.2a4.91,4.91,0,0,1,3.08.82,5,5,0,0,0-3.08-.82,6.5,6.5,0,0,1-3.92-.94h0c-2.92.36-5.4-.58-7.93-2-3.35-1.93-4-4.55-2.18-7.51,3.24-5.34,2-10.48-.72-15.21-1.4-2.44.28-2.94,1.19-4,1.16-1.36,2.07-2.71,1.32-4.48a4.09,4.09,0,0,0-4.36-2.68C95,21.62,92.53,20,90,21c-.54-1.81.64-2.52,1.23-3.43,3-4.68,3.21-5-2.13-5.84-3.52.76-7,1.91-10.58,2.19-3,.23-5.9-.38-8.75.49-3.64,1.12-5.69,5.16-9.88,5.22-4,.06-3.76-1.6-7.81-.15C47.5,21.11,45.48,22,40.69,22.89s-8.27,5.83-12.44,8.87a91.83,91.83,0,0,0-9.22,8l-2.55.64a4.77,4.77,0,0,0-1.93,3.51c-.58.56-.81,1.38-1.52,2C9.34,49,2.27,46,.48,52.31c0,3.24,0,6.49,0,9.73,0,.17,0,.32,0,.48v32.9h0c0,2.24,0,4.47,0,6.71l.09,4.27v6.34a30.47,30.47,0,0,1,5,.68,53,53,0,0,1,5.28,1.49c2.47.81,4.9,1.72,7.36,2.54a47.46,47.46,0,0,0,7.73,2c2.49.4,4.92.81,7.33,1.24a3,3,0,0,1,.06-.54h0a3,3,0,0,0-.06.54c3.55.63,7.06,1.31,10.66,2.07,4,.84,6.28-.26,9.09-1.45,0-.71,0-1.42,0-2.13l1.27,0a2.74,2.74,0,0,1,0-.5,2.74,2.74,0,0,0,0,.5c.09.5.17,1,.26,1.52.56-.21,1.16-.41,1.79-.6s1.17-.33,1.83-.46a22.67,22.67,0,0,1,14.67,2.19A28.34,28.34,0,0,1,78,125.43l.73.57c2,1.55,4,2.66,6.85,2.05a25.08,25.08,0,0,0,6.55-2.83,52.29,52.29,0,0,1,7.23-3.66,9.92,9.92,0,0,1,9,.74,3.67,3.67,0,0,1,2.77-1.08c2.51,0,5.51.13,5.45,4h0c-1.75,2.58,1.55,3.13,1.94,4.84.43,5.22-1,9.71-5.13,13.14,1.75.09,3.79.8,5.18.13,3.63-1.74,5.41-.14,6.86,2.82,0,1,0,2,0,3,2,1.83,4,.87,5.95,0h0c3.78-.79,6.54,2,9.86,2.83a5.68,5.68,0,0,1,3.16,1.74,12.48,12.48,0,0,1,2.77,2.08l.65.12a18.25,18.25,0,0,1,3.77.11c.12-.38.6-.72,1.7-1a5.08,5.08,0,0,0,0-.78,5.08,5.08,0,0,1,0,.78,11.17,11.17,0,0,0,3.09.93c.33-.06.68-.09,1-.16,5-1,9.58-3.39,14.55-4.57a22.16,22.16,0,0,1,3.18-.48,10.17,10.17,0,0,1-1.83-1.72h0l0,0h0l1.93.21h0c.32.42.67.47,1,.07l2-.2a3.3,3.3,0,0,0,1.88,1.4,20.83,20.83,0,0,0,7.44-1.37,17.62,17.62,0,0,0,3.66-2.29c2.41-1.86,4.66-4.1,7.34-5.47.2-.1.41-.16.61-.26l.07,0a2,2,0,0,1,.26-.1,22.16,22.16,0,0,1,5.15-1.69,20.91,20.91,0,0,1,12.28,1.49,29.08,29.08,0,0,1,3.75,1.94l.49.28c3.23,2.08,7.14,6.37,11.49,5.18a8.64,8.64,0,0,0,3.63-2.62l-.34.08c-.2,0-.51-.33-.78-.52a9.54,9.54,0,0,1,5.14-3.3,99.51,99.51,0,0,0,8.9-6.53,83.34,83.34,0,0,1,7.66-5.47,25.66,25.66,0,0,1,5.29-2.52,12.1,12.1,0,0,1,4-.52c2.66,0,5.29.65,8,.44,5.57-.42,11-3.72,16.28-5.29A39.36,39.36,0,0,1,300,120.3V83.15A36.64,36.64,0,0,0,297.1,74.31ZM88.3,108.18a28,28,0,0,1-10.35,5,28,28,0,0,0,10.35-5,4.35,4.35,0,0,1,1.3-1.56A4.35,4.35,0,0,0,88.3,108.18Z" transform="translate(-0.45 -11.72)"/></g><g id="Layer_3" data-name="Layer 3">
<path class="cls-2" d="M297.1,74.31l-.32-.63A13,13,0,0,1,290.93,70a22.65,22.65,0,0,1-5-3v.32c-3.24,1.15-6.55-1.88-10.12.68-1.67,1.2-8.08,5.16-6-3.3.09-.35-.82-.89-1.18-1.41a7.78,7.78,0,0,0-3.77-3.09A16.37,16.37,0,0,1,257,62c-.65,0-1.27-.12-1.91-.19h0c-.77-.09-1.55-.19-2.3-.33.89,3.12,1.77,6.25,2.78,9.34a11.06,11.06,0,0,1-.25,7.47,117.6,117.6,0,0,0-6.72-13.62,3,3,0,0,1,.63-4c-.82-.21-1.65-.42-2.48-.65-1.65.91-3.82.52-6.41-1-3.05-1.75-6.08-3.25-9.82-1.9-1.39.49-3.06.26-3.39-1.83h-3c-.41.67-.71,1.78-1.27,1.94-8.1,2.29-8.8,8.69-8.71,15.51,0,3.53-.12,6.94-3,9.5h0l-4,0h0c-2.74-.12-4.14,1.11-4,3.93l1,4.08-1-4.08-1.1,0c-6.31-3.06-6.93-2.93-9.88,2l-.06.12a1.33,1.33,0,0,1-.24.39h0c-1.7,2.88-4.78,1.71-6.86,1.24a14.1,14.1,0,0,0-9.8,1.23q.44.84.93,1.65-.5-.81-.93-1.65c-1.49-.75-2.66-2.32-1.79-3.54,3.62-5.15,1-8.37-2.9-11.49-.35-.28-.16-1.24-.21-1.89a23.38,23.38,0,0,0-.2-2.38,23.08,23.08,0,0,1-8.34-2.36,16.94,16.94,0,0,0-5.35-1.36l-.17.1a16,16,0,0,1-3.79,1.79,6.14,6.14,0,0,1-4.33,4.17c-1,.28-.66,2,.3,2.43,2.53,1.17,1.74,3.2,2.14,5.23.95,4.79-1.38,4.12-4.26,3.31h0l-.21-1.94c-2.19-2.76-3.69-6.11-7.81-6.94-1.45-.3-1-2.61-1-4.07h-3c-2.62-.59-1.95-2.71-2-4.42v-1l-.92-.5A34.44,34.44,0,0,1,119.63,55a11.66,11.66,0,0,1-5,1c-.17,0-.34,0-.5,0,0,.74.09,1.5,0,2.2a4.91,4.91,0,0,1,3.08.82,5,5,0,0,0-3.08-.82,6.5,6.5,0,0,1-3.92-.94h0c-2.92.36-5.4-.58-7.93-2-3.35-1.93-4-4.55-2.18-7.51,3.24-5.34,2-10.48-.72-15.21-1.4-2.44.28-2.94,1.19-4,1.16-1.36,2.07-2.71,1.32-4.48a4.09,4.09,0,0,0-4.36-2.68C95,21.62,92.53,20,90,21c-.54-1.81.64-2.52,1.23-3.43,3-4.68,3.21-5-2.13-5.84-3.52.76-7,1.91-10.58,2.19-3,.23-5.9-.38-8.75.49-3.64,1.12-5.69,5.16-9.88,5.22-4,.06-3.76-1.6-7.81-.15C47.5,21.11,45.48,22,40.69,22.89s-8.27,5.83-12.44,8.87a91.83,91.83,0,0,0-9.22,8l-2.55.64a4.77,4.77,0,0,0-1.93,3.51c-.58.56-.81,1.38-1.52,2-1.73,1.43-4.21,1.54-6.54,1.91-.83,5.53-.61,10.67,3.86,15.24a3.87,3.87,0,0,0,3.07,1.18c0-3,.05-5.94.07-8.92,4.49-5,14.91-5.49,18.56-.94.87,1.09,1.94,2.46.91,3.49-3.37,3.31-2,7.5-2.52,11.33h0l-.06,3L28.45,73.3c-1.13-.06-2.28-.16-3,1-2.07-.21-4,.58-4.15,2.6-.28,3.94-3.3,4.26-5.89,5.31a35.14,35.14,0,0,1,0,5.33c-.71,4.91.76,7.27,6.05,5.71-.05,1.92-2.29,4.32.73,5.58,2,.85,2.94-.73,3.25-2.59h0l1.94-.09,1,.1h0c-1,2.62-2.87,4.85-3,7.84-.08,2.17-1.59,2.65-3,1.36-4.13-3.73-6.41-2.84-7.9,2.4a6.05,6.05,0,0,1-4.3,3.88c-2.84.7-6.15,1.75-6.83-2.94a2.48,2.48,0,0,0-2.69-2.37v6.34a30.47,30.47,0,0,1,5,.68,53,53,0,0,1,5.28,1.49,7.46,7.46,0,0,0,1-.93,2.06,2.06,0,0,1,3.12.29c1,1.11,2.1,2.15,3.21,3.18a47.46,47.46,0,0,0,7.73,2c2.49.4,4.92.81,7.33,1.24a3,3,0,0,1,.06-.54h0a4.36,4.36,0,0,0,4.38-2.6c.59-1.16,2.12-1.79,2.78-.48,2.22,4.38,5,2.33,7.8,1,5.16-.61,1.81-5.37,3.69-7.77,1,3-.55,6.14,1.06,8.88l1.27,0a2.74,2.74,0,0,1,0-.5c.46-2-1.17-4.9,1.1-5.76,1.83-.69,3.92.47,5.57,2.73,1.22,1.67,4.75,1.68,7.19,1s4,0,5.71,1.63c2.34,2.27,5,3.69,8.38,1.93,1.25-3.85,2.87-6.4,7.69-4,3.84,2,3.3-2.09,4.32-3.9,3.35-2.15,7.58-1.21,11-3.11-.23-.62-.41-1.28-.59-1.93h0c.18.65.36,1.31.59,1.93,1.26-.56,2.63-1.49,2.91,1h0c-2.67,1.21-5.35,2.37-8.38,2.33-4.25-.06-4.53,5.72-7.71,5.93s-6.37-1.93-8.9,1.59c-.13.18-.6.13-.92.18,0,1,0,2,0,3-.14,1.71-1,2.83-2.77,2.87a3.26,3.26,0,0,1-.82-.06c2,1.55,4,2.66,6.85,2.05a25.08,25.08,0,0,0,6.55-2.83,52.29,52.29,0,0,1,7.23-3.66,9.92,9.92,0,0,1,9,.74,3.67,3.67,0,0,1,2.77-1.08c2.51,0,5.51.13,5.45,4h0c-1.75,2.58,1.55,3.13,1.94,4.84.43,5.22-1,9.71-5.13,13.14,1.75.09,3.79.8,5.18.13,3.63-1.74,5.41-.14,6.86,2.82,0,1,0,2,0,3,2,1.83,4,.87,5.95,0h0c3.78-.79,6.54,2,9.86,2.83a5.68,5.68,0,0,1,3.16,1.74,12.48,12.48,0,0,1,2.77,2.08l.65.12a18.25,18.25,0,0,1,3.77.11c.12-.38.6-.72,1.7-1a5.08,5.08,0,0,0,0-.78c5.58-.56,7.91-4.27,8.95-9.22a2.71,2.71,0,0,1,3.25,2.23c.42,1.58,1.59,1.34,2.74.77.26-.18.51-.35.76-.49-.25.14-.5.31-.76.49,1.44,1.6,3.36.83,5.08,1l0,0h0l1.93.21h0c.32.42.67.47,1,.07l2-.2c4.13-.71,7.89-2.84,12.42-2.25a3.47,3.47,0,0,0,.56,0c2.41-1.86,4.66-4.1,7.34-5.47.2-.1.41-.16.61-.26l.07,0V139.2l0,0a3.11,3.11,0,0,0,2.81-1.69c1.61-3.2,4.24-3.11,7.12-2.35,3.49-1.43,6.44-.9,8.73,2.32a7.2,7.2,0,0,0,5,3c2.29.42,3.54,2.31,4.85,3.87,2.31,2.76,4.61,3.29,7.39.86a9.54,9.54,0,0,1,5.14-3.3,99.51,99.51,0,0,0,8.9-6.53,83.34,83.34,0,0,1,7.66-5.47c-3.49.25-7.12.73-10.86-.48,4-2.12,8.48-1.14,11.15-4.33l1.87,0A4.69,4.69,0,0,1,262.9,123a4.69,4.69,0,0,0-3.92,2.14c2.38-.32,4.72,1.5,7.12.13,1.39,0,2.77-.13,3-1.94l1.78-1.18,1.12-1c2.23-.32,4,1.15,6.08,1.52,3.38.62,6.49.46,8.05-3.35a5.37,5.37,0,0,0,.88-.14h0c4.69-.09,8.7-2.43,12.95-4v-32A36.64,36.64,0,0,0,297.1,74.31ZM199.91,95.82c0,.42-1.31,1.11-1.33,1.08-2.78-3.19-7.8-.6-10.82-4.46,2.88-1.38,6-1.42,7.22-5,.73-2,3.67-1.82,4.71.5S200.22,93.19,199.91,95.82ZM255,88.47c-4.29,3.41-6.83,6.87-1.12,11.24.16.12.06.65,0,1a6.67,6.67,0,0,1-.61,1.08c-1.75-1-3.12-3-5.52-2.69-.38,0-1.2-.63-1.18-.67,1.9-4.13-.39-7.87-.82-11.79-.23-2.09,8.16-3.56,9.67-1.7A2.4,2.4,0,0,1,255,88.47Z" transform="translate(-0.45 -11.72)"/>
<path class="cls-2" d="M273.53,123.44a1.26,1.26,0,0,0-1.31,1.21c-.1.81-.21,1.78.91,1.95s1.4-.64,1.67-1.47C274.92,124.16,274.52,123.48,273.53,123.44Z" transform="translate(-0.45 -11.72)"/>
<path class="cls-2" d="M82.34,120.15h0v0Z" transform="translate(-0.45 -11.72)"/>
<path class="cls-2" d="M78.4,123.14c-3.3-1.69-6.12-4.45-10-4.94-2.91-.38-5.86-.45-8.78-.8-1.68-.2-3.07-.16-3.21,1.93,0,.25,0,.5,0,.75.58-.17,1.17-.33,1.83-.46a22.67,22.67,0,0,1,14.67,2.19A28.34,28.34,0,0,1,78,125.43C77.83,124.65,79,123.42,78.4,123.14Z" transform="translate(-0.45 -11.72)"/></g><g id="Layer_1" data-name="Layer 1">
<path class="cls-3" d="M285.4,105.93a1.4,1.4,0,0,0-.11.37s.2.08.31.12a1,1,0,0,0,.11-.37S285.51,106,285.4,105.93Z" transform="translate(-0.45 -11.72)"/>
<path class="cls-4" d="M300,105.19c-4.56,1.32-7.58-2.53-11.48-3.49-1.66-.41-1.43-2-.28-3.18a34.37,34.37,0,0,0,5.47-7.64c1.53-2.67,4.13-1.36,6.29-1.66Z" transform="translate(-0.45 -11.72)"/>
<path class="cls-5" d="M300,115.18c-4.25,1.54-8.26,3.88-12.95,4,.16-5.45,1.75-7,7.5-7.3,2-.09,3.3-2.22,5.45-1.67Z" transform="translate(-0.45 -11.72)"/>
<path class="cls-5" d="M202.44,112.24c.63,3,3,5.8,4.85,8.22,3.68,4.86,2.28,9.68,1.85,14.68,3.49-1.43,6.44-.9,8.73,2.32a7.2,7.2,0,0,0,5,3c2.29.42,3.54,2.31,4.85,3.87,2.31,2.76,4.61,3.29,7.39.86a9.54,9.54,0,0,1,5.14-3.3,99.51,99.51,0,0,0,8.9-6.53,5.49,5.49,0,0,1-1-.75c-2.2-2.14-4.42-3.85-7.69-3.44a2.55,2.55,0,0,1-.25-.88,49.27,49.27,0,0,0-5.17-18.07c-4.07-1.35-1.64-7-3.32-7.4-3.31-.87-5.62-2-7.32-4.91a11.67,11.67,0,0,1-1.34-6.68c-.46-.16-1.29-.28-1.31-.5-.61-5.15-3.4-7.77-8.65-7.63l-1,1.16c2.51,4.7,3.45,10,5.39,14.83,2.49,6.21,4.59,12.91,9.73,17.77,1.35,1.27,2.32,2.67.73,4.23-1.79,1.77-2.14-.63-2.84-1.36a8.86,8.86,0,0,0-4.44-2.14c-2.33-.62-5.13-.32-3.75-4.37.55-1.61-1.19-2.42-2.6-1.58-4.15,2.49-5.56.17-6.66-3.36-2.41-7.71-10.14-7.88-15.86-10.79-1.49-.76-2.53,1.09-2.77,2.74C195.23,103.25,200.87,104.71,202.44,112.24Z" transform="translate(-0.45 -11.72)"/>
<path class="cls-4" d="M235.09,112.19c-4.07-1.35-1.64-7-3.32-7.4-3.31-.87-5.62-2-7.32-4.91a11.67,11.67,0,0,1-1.34-6.68c-.54-10.31,4.51-18.84,9.14-27.38,2-3.65,6.3-3.69,9.22-1.64,4.8,3.37,9.35,7.59,10.23,13.8.63,4.34-3.27,2.93-5.63,3.24-1.61-3.24-4.44-2.87-5.56-.51-1.2,2.52-3.16,4.15-4.56,6.32-2.39,3.7-5.91,6.68-6.91,11.3-.56,2.55-.63,4.21,2.72,3.88,1.75-.16,4,.33,3.1,2.5-1.25,3,.63,5,1.27,7.42Z" transform="translate(-0.45 -11.72)"/>
<path class="cls-5" d="M283.89,88.55c-1.29-2-.52-6.08-2.63-8.85-.69-.9-.05-2.46,1.09-3,4.37-2,3.75-5.75,3.58-9.39-3.25,1.15-6.55-1.88-10.13.68-1.67,1.2-8.08,5.16-6-3.3.09-.35-.82-.89-1.18-1.41a7.78,7.78,0,0,0-3.77-3.09A16.37,16.37,0,0,1,257,62c-.65,0-1.27-.12-1.91-.19,3.66,2.36,8.29,3.45,10.58,7.72,2.51,4.69,9.83,6.27,8.68,13.42-.07.4.7,1.23,1.23,1.38,5.72,1.69,5.19,6.62,5.81,11,.4,2.76.84,5.51,1.26,8.27l1.47-.11C282.07,98.52,287.56,94.21,283.89,88.55Z" transform="translate(-0.45 -11.72)"/>
<path class="cls-5" d="M236.13,112.13c-.64-2.41-2.52-4.4-1.27-7.42.9-2.17-1.35-2.66-3.1-2.5-3.35.33-3.28-1.33-2.72-3.88,1-4.62,4.52-7.6,6.91-11.3,1.4-2.17,3.36-3.8,4.56-6.32,1.12-2.36,4-2.73,5.56.51-1.46.83-3,1.87-2.86,3.65.49,5.79,1.24,11.55,1.89,17.33v5A13,13,0,0,1,236.13,112.13Z" transform="translate(-0.45 -11.72)"/>
<path class="cls-5" d="M286.17,119.29c-1.56,3.81-4.67,4-8.05,3.35-2.05-.37-3.85-1.84-6.08-1.52l-1.12,1-1.78,1.18c-3.37.69-7.36-2.12-10.16,1.81l-1.87,0c-1.29-1.26-2.83-2.62.55-3,6.06-.62,11.17-3.36,16.23-6.55,1.79-1.14,4.48-3.76,6.72,0,.12.21,1,.22,1.34,0C287.52,112.14,285.4,117.33,286.17,119.29Z" transform="translate(-0.45 -11.72)"/>
<path class="cls-5" d="M262.05,85.23a29.39,29.39,0,0,1,6.7,8.47c2.25,4.19,2.64,8.69,5,12.61a2.32,2.32,0,0,1-3.38-1.44c-.57-4.44-5.58-7.22-4.43-12.25.3-1.29-.53-2.14-1.59-2.8a4.65,4.65,0,0,1-2.31-4.61Z" transform="translate(-0.45 -11.72)"/>
<path class="cls-4" d="M245.1,107.19v-5c.49,0,1,0,1.46,0,1.58.08,3.8-.33,4,1.77.22,2.4-1.85,3.11-4,3.24C246.08,107.22,245.59,107.19,245.1,107.19Z" transform="translate(-0.45 -11.72)"/>
<path class="cls-6" d="M207.12,82.2l4,0c.62,1,2,1.39,2,2.82l-1,1.16C210.7,84.6,207.05,85.72,207.12,82.2Z" transform="translate(-0.45 -11.72)"/><path class="cls-4" d="M5.6,113.41a53,53,0,0,1,5.28,1.49,7.46,7.46,0,0,0,1-.93,2.06,2.06,0,0,1,3.12.29c1,1.11,2.1,2.15,3.21,3.18a47.46,47.46,0,0,0,7.73,2c2.49.4,4.92.81,7.33,1.24a3,3,0,0,1,.06-.54c-1.83-.7-3.14-1.85-3.09-4,.15-6.33-1-12.73,1.17-18.93-1.06-.24-1.31-2.87-3.07-1-1,2.62-2.87,4.85-3,7.84-.08,2.17-1.59,2.65-3,1.36-4.13-3.73-6.41-2.84-7.9,2.4a6.05,6.05,0,0,1-4.3,3.88c-2.84.7-6.15,1.75-6.83-2.94a2.48,2.48,0,0,0-2.69-2.37v6.34A30.47,30.47,0,0,1,5.6,113.41Z" transform="translate(-0.45 -11.72)"/>
<path class="cls-7" d="M270.92,122.1l1.12-1Z" transform="translate(-0.45 -11.72)"/>
<path class="cls-4" d="M125.37,149.14c2,1.83,4,.87,5.95,0-1-1.37-4.08-1.32-3.26-3.67.69-2,2.86-2,5-2.09,4.31-.27,5.9-4,7.06-7.43s1.92-4.33,4.11-.87c1.65,1.54,5.2.81,5.16,4.44,0,1,.86,1.22,1.84,1,4.63-.9,7.65,2.15,10.94,4.51a2.71,2.71,0,0,1,3.25,2.23c.42,1.58,1.59,1.34,2.74.77,2-1.45,3.88-1.87,5.07,1l1.93.21,1,.07,2-.2c4.13-.71,7.89-2.84,12.42-2.25a3.47,3.47,0,0,0,.56,0c2.41-1.86,4.66-4.1,7.34-5.47.2-.1.41-.16.61-.26l.07,0V139.2c-4.79-1-5.76-4.94-6.23-9.09,6.11-.28,3.85,6.23,6.25,9.07a3.11,3.11,0,0,0,2.81-1.69c1.61-3.2,4.24-3.11,7.12-2.35.43-5,1.83-9.82-1.85-14.68-1.83-2.42-4.22-5.18-4.85-8.22-1.57-7.53-7.21-9-13.37-10-3,.73-3.41,5-6.9,5,.8,1.62-2,6,3.28,4.17,4.51-1.54,6.88-.17,8.68,4.78.62,1.71-2.76,9.06-4.38,8.75-4-.75-6.3,2.65-9.63,3.3-2.51,1.36-5.67,1.81-6.93,4.92-.61,2.78-3.12,2.37-5,3l0,0a2.88,2.88,0,0,1-2,3v0l-1,1h0c-.17,1.32-.44,2.43-2,1-2.05-.62-4.09-1.28-6.16-1.84-7-1.91-9.51-6.09-7.78-13.14-2.17-2.31-5-2.56-7.93-3.21-3.52-.77-6.59,1.54-10,.29-6.7-2.47-11.21-8.16-17-12-2.66-1.75-3.85-1.73-6.08-1.1-2.67,1.21-5.35,2.37-8.38,2.33-4.25-.06-4.53,5.72-7.71,5.93s-6.37-1.93-8.9,1.59c-.13.18-.6.13-.92.18,0,1,0,2,0,3a77.66,77.66,0,0,0,9.81,2,52.29,52.29,0,0,1,7.23-3.66,9.92,9.92,0,0,1,9,.74,3.67,3.67,0,0,1,2.77-1.08c2.51,0,5.51.13,5.45,4,4.89-1.49,9.47-.76,14.15,2.15-4,2.13-8.42,1.12-12.21,2.69.43,5.22-1,9.71-5.13,13.14,1.75.09,3.79.8,5.18.13,3.63-1.74,5.41-.14,6.86,2.82C126.7,147.14,128.28,148.15,125.37,149.14Z" transform="translate(-0.45 -11.72)"/>
<path class="cls-4" d="M181.9,104.76c-.37-5.45-4.43-9.07-6.71-13.56-1.49-.75-2.66-2.32-1.79-3.54,3.62-5.15,1-8.37-2.9-11.49-.35-.28-.16-1.24-.21-1.89a23.38,23.38,0,0,0-.2-2.38,23.08,23.08,0,0,1-8.34-2.36,16.94,16.94,0,0,0-5.35-1.36l-.17.1A3.27,3.27,0,0,0,157.91,71c3,1.76,4.37,3.7,4.92,7.82.49,3.66,3.29,7.46,3.39,11.78,0,.35.66.7,1,1,4.68,3.95,10.12,7.25,11.67,13.88.36,1.54,1.84,1.74,3.25,1.69C182.08,106.38,182,105.57,181.9,104.76Z" transform="translate(-0.45 -11.72)"/>
<path class="cls-5" d="M204.14,90.22c-2.63-.35-1.76-2.52-2.11-4.06l1.1,0,1,4.08Z" transform="translate(-0.45 -11.72)"/>
<path class="cls-4" d="M53.07,119.18c-1.61-2.74-.07-5.87-1.06-8.88-1.88,2.4,1.47,7.16-3.69,7.77-1.45-3.18-6-3.18-7-6.76a9.9,9.9,0,0,0,5.07-1.12c3.94,2,2.77-1.25,3-3l0,0c1.73.11,3.19-.3,4-2v0c3.11.21,3.08-1.89,3-4a8.23,8.23,0,0,0,0-.86c1.81-.29,2.11-1.57,2-3.1h0c3.43.29,6-1.92,9-3,3.79.05,5.68,2.9,7.84,5.35a2.06,2.06,0,0,1,.11,3.08c-1,1.12-2.06,1.6-3.48.78-1.13-.66-2.51-2-3.4-1.72-1.58.46-4.74-.72-4.48,2.34.24,2.77-2.88,6.35,2.36,8.27,8.36,3,15.32.77,22-4.13,2.58.54,6-.13,6,4.13-1,1.81-.48,5.85-4.32,3.9-4.82-2.46-6.45.11-7.7,4l0,0c-3.35,1.78-6,.35-8.4-1.92-1.69-1.62-3.27-2.33-5.71-1.62s-6,.69-7.19-1c-1.65-2.26-3.74-3.42-5.57-2.73-2.27.86-.64,3.79-1.1,5.76a2.74,2.74,0,0,0,0,.5Z" transform="translate(-0.45 -11.72)"/>
<path class="cls-5" d="M180.12,128.19c-2.51,1.36-5.67,1.81-6.93,4.92-1.82.76-4.39.24-5,3l0,0c-2,.14-2.05,1.51-2,3v0l-1,1h0l-2,1c-2.05-.62-4.09-1.28-6.16-1.84-7-1.91-9.51-6.09-7.78-13.14,2.48-1.77,5.52,1,8-1l0,0c1.64,0,3.28.26,4.86-.56,5.82-3,11.4-2.24,16.11,2.06C178.78,127.22,179.47,127.68,180.12,128.19Z" transform="translate(-0.45 -11.72)"/>
<path class="cls-4" d="M70.28,29.55c2.16-2,3.83-2.79,5.65-1.69S77.37,31,77,32.8c-.68,3.52.94,6,3.92,7.48,2.76,1.39,4.35,3.18,4.46,6.48.13,3.61,2.52,6.1,5.6,7.54s4.29,3.74,2.86,6.34c-1.72,3.12-.76,5.13,2.39,7.76-5.3-.77-8.36-1.64-8.16-7.11.14-3.56-3.55-7.07-5.49-8.67C78.3,49.05,80,44.07,77.42,40.44c-.7-1-.72-2.53-2.16-3s-2.35-1.69-1.68-3C75.12,31.34,73.26,30.33,70.28,29.55Z" transform="translate(-0.45 -11.72)"/>
<path class="cls-5" d="M41.29,111.31c1.07,3.58,5.58,3.58,7,6.76-2.8,1.33-5.58,3.38-7.8-1-.66-1.31-2.19-.68-2.78.48a4.36,4.36,0,0,1-4.38,2.6c-1.83-.7-3.14-1.85-3.09-4,.15-6.33-1-12.73,1.17-18.93,1.31.65,2.41,2,1.76,3.13-2.22,4,1.54,6.33,2.44,9.39C36.43,112.45,39.37,110.81,41.29,111.31Z" transform="translate(-0.45 -11.72)"/>
<path class="cls-5" d="M150.14,89.92c4.46-1,7.7-.23,10.51,2.3.56.5,1.27,1.75,1.06,2-2.05,2.85-.11,4.78.72,7.42.9,2.81,1.08,4.56,4.44,5.22,2,.4,1,2.77.44,4.32-.71,2-.52,3.11,2,3,3.87-.12,4.14,2.21,3.35,5.79-2-1.5-3.49-3.06-5.76-3.22a2.57,2.57,0,0,1-2.58-2.59c.28-3.63-.83-6.14-4.67-6.92-.28-.06-.51-.4-.76-.6,3.31-3.6-2.65-6.7-.56-10.22,1.35-2.28-.8-2.67-1.85-3.8C155,91,152.47,91.73,150.14,89.92Z" transform="translate(-0.45 -11.72)"/>
<path class="cls-4" d="M154.7,112.18c-2.23,1.88-3.93,1.27-5.72,1.26-2.89,0-6.62-1.86-8.06,3.17-.43,1.51-3.79.93-5.45.41a27.85,27.85,0,0,0-9.45-1.57c-1.37,0-4.11.17-4-1.91.08-2.39,2.61-1.27,4-1.3,3.46,0,7-.5,10.36.72a3.4,3.4,0,0,0,2.43,0C143.76,110.35,148.85,112.4,154.7,112.18Z" transform="translate(-0.45 -11.72)"/>
<path class="cls-4" d="M97.12,87.29c6.13-1.66,9.49.53,12.51,5.26a48.83,48.83,0,0,1,4.17,8.58c.64,1.62,1.93,2,3.57,2.1s3.6-.65,5.21.75c-6.1,2.69-11.74-.07-13.41-6S103.47,88.43,97.12,87.29Z" transform="translate(-0.45 -11.72)"/>
<path class="cls-5" d="M94.33,112.31c0-4.26-3.45-3.59-6-4.13.58-1.07,1.53-2.19,2.67-1.73,3.48,1.44,5.17.18,6.94-3,2.41-4.29,4.25-.52,5.68,1.21,1,1.17,1.19,3,1.75,4.5C101.91,111.1,97.68,110.16,94.33,112.31Z" transform="translate(-0.45 -11.72)"/>
<path class="cls-5" d="M125.27,97.27c.07-5.92.59-10.57-2.8-14.41-.55-.62-1.51-2.17-.36-3.11s2,.23,2.87,1C129,84.1,129.31,88.8,125.27,97.27Z" transform="translate(-0.45 -11.72)"/>
<path class="cls-4" d="M134.26,72.27h3c.08,1.46-.42,3.77,1,4.07,4.12.83,5.62,4.18,7.81,6.94l.21,1.94c-4.53,1.39-3.18-5.35-7.57-5.21C133.89,80.16,134.71,75.5,134.26,72.27Z" transform="translate(-0.45 -11.72)"/>
<path class="cls-4" d="M110.29,57.25a6.5,6.5,0,0,0,3.92.94c2.5,0,4.38,1,4,3.72-.36,2.48,2.14,4,1.71,6.82C114.11,66.83,113.89,60.58,110.29,57.25Z" transform="translate(-0.45 -11.72)"/>
<path class="cls-4" d="M126.64,98.85a9,9,0,0,1,1.81.24c1.61,1.3,4.19,1.66,4.37,4.3,0,.43-1.09,1.36-1.17,1.31A16.93,16.93,0,0,1,126.64,98.85Z" transform="translate(-0.45 -11.72)"/>
<path class="cls-8" d="M157.23,125.15l-.35-.19.33.21Z" transform="translate(-0.45 -11.72)"/>
<path class="cls-5" d="M153.22,154.32c-1.83-5.55-5.35-10.15-8.47-15-.88-1.36-2.43-2.56-.52-4.23,1.65,1.54,5.2.82,5.16,4.44,0,1,.86,1.22,1.84,1,4.63-.9,7.65,2.15,10.94,4.51C161.13,150.05,158.8,153.76,153.22,154.32Z" transform="translate(-0.45 -11.72)"/>
<path class="cls-5" d="M199.19,139.2c-4.79-1-5.76-4.94-6.23-9.09,6.11-.28,3.85,6.23,6.25,9.07Z" transform="translate(-0.45 -11.72)"/>
<path class="cls-3" d="M165.18,140.11l1-1Z" transform="translate(-0.45 -11.72)"/>
<path class="cls-7" d="M176.2,149.35c-.37.4-.72.35-1-.07Z" transform="translate(-0.45 -11.72)"/>
<path class="cls-5" d="M204.15,90.21c4,2.37,2.62,7,4.08,10.42-4.36-2.23-3.71-6.54-4.09-10.41Z" transform="translate(-0.45 -11.72)"/></g></svg>