<?xml-stylesheet type="text/css" href="../main.css"?>
<svg id="cloud-2" xmlns="http://www.w3.org/2000/svg" viewBox="0 0 300 300">
<style type="text/css">
	.st0{fill:#9966CC;}
	.st1{fill:#CC99CC;}
	.st2{fill:none;stroke:#CC99CC;stroke-miterlimit:10;}
	.st3{fill:#663366;}
	.st4{fill:#333366;}
	.st5{fill:#FBF7F1;}
	.st6{fill:#E5C7B9;}
	.st7{fill:#D7B0A8;}
</style>
<g id="Layer_3">
	<path class="st0" d="M302.4,240.2c0-2,0-4,0-6c-1.6,0-2.6,0.8-3.1,2.1c-1.9,5.1-6.2,6.5-11.1,6.9c-1.8,1.5-4.5,0-6.1,2c0,0,0,0,0,0
		c-2.7,2-1.8,7.3-6.9,7.2c-5.5,1.7-10.8,3.4-11.6,10.3c-0.1,1.1-1.5,1.8-2.8,1.5c-6-1.2-8,3.7-11.1,6.9c0.3,1.6,1.3,4.3,0.7,4.6
		c-3.6,2.3-5.1,5.8-7.2,9.1c-0.6,1-3.1-0.1-4.7-0.8c-3.7-1.6-7.5-1.7-11,0.6c-2.5,1.7-5.5,0.4-8.1,1.5c-0.4,0.6-0.7,1.2-1.1,1.9
		c0.2,3.4,0,6.5-3.9,8.3c-1.7,0.8-2.6,2.6-2.3,4.6c1.7,0,3.4,0,5.1,0c8.8,0,17.6,0,26.3,0c18.6,0,37.1-0.1,55.7,0.1
		c2.5,0,3.1-0.6,3.1-3.1C302.4,278.7,302.4,259.4,302.4,240.2z M298.2,245.5C298.2,245.5,298.2,245.5,298.2,245.5
		C298.2,245.5,298.2,245.5,298.2,245.5C298.2,245.5,298.2,245.5,298.2,245.5C298.2,245.5,298.2,245.5,298.2,245.5
		C298.2,245.5,298.2,245.5,298.2,245.5C298.2,245.5,298.2,245.5,298.2,245.5z M297.3,246.6C297.3,246.6,297.3,246.6,297.3,246.6
		C297.3,246.6,297.3,246.6,297.3,246.6C297.3,246.6,297.3,246.6,297.3,246.6C297.3,246.6,297.3,246.6,297.3,246.6z M297.5,246.4
		C297.5,246.4,297.5,246.4,297.5,246.4C297.5,246.4,297.5,246.4,297.5,246.4C297.5,246.4,297.5,246.4,297.5,246.4
		C297.5,246.4,297.5,246.4,297.5,246.4z M298.7,244.5C298.7,244.5,298.7,244.5,298.7,244.5C298.7,244.5,298.7,244.5,298.7,244.5
		C298.7,244.5,298.7,244.5,298.7,244.5C298.7,244.5,298.7,244.5,298.7,244.5z M298.9,244.2C298.9,244.2,298.9,244.2,298.9,244.2
		C298.9,244.2,298.9,244.2,298.9,244.2C298.9,244.2,298.9,244.2,298.9,244.2C298.9,244.2,298.9,244.2,298.9,244.2z M299.3,243.2
		C299.3,243.1,299.3,243.1,299.3,243.2C299.3,243.1,299.3,243.1,299.3,243.2C299.3,243.1,299.3,243.1,299.3,243.2z"/>
	<path class="st0" d="M199.2,297.9c-0.1-1.6-1.6-1.8-2.5-2.7c-3.1-3.2-8.1-3.5-10.8-7.2l-0.9-1.1c-2.7-0.7-6.2,1.8-8.3-1.9
		c-3.4-0.8-4.4-3.4-5-6.3c-3.6-0.3-1.8-4.6-4.4-5.6c-9,1-13.9-4.1-17-11.5c-3.2-1-6.3-2.2-9.8-1.7c-0.6,0.1-1.7,0.1-1.9-0.2
		c-1.9-2.8-5.2-4-7.4-6.4c-2.2-0.3-4.5-0.2-5.1-3c-2.2,0.1-4.1-0.2-4.2-2.9c-3.6-3-6.5-7.1-11.9-7c0,0,0,0,0,0
		c-0.2-1.2-0.8-1.9-2.1-1.9h0c-1-3.3,2.4-6.6-0.1-9.9c-0.4-0.7-0.7-1.4-1.1-2.1c0,0,0,0,0,0c0.4-2.4,2.6-4.3,2.3-6.9
		c-0.9-1.2-1.9-2.3-2.1-3.9c0.3-1.6,0.6-3.3,0.9-4.9c-2.3-1.5-4.6-3.2-7.1-4.5c-1.4-0.8-3.5-1.7-4.7-1.2c-4.3,1.6-8,1.9-11.3-1.7
		c-0.8-0.8-2-0.3-2.7,0.4c-1.8,2-4.1,2-6.5,1.9c-4.5,2.6-8,2.1-11.4-1.7c-1.2-1.3-2.6-1.6-4-1.1c-3.5,1.3-5.7-0.2-7.4-3c0,0,0,0,0,0
		c0,0,0,0,0,0c-0.1-0.1-0.2-0.1-0.4-0.2c0,0-0.1-0.1-0.1-0.1c0,0-0.1-0.1-0.1-0.1c0.2,0.2,0.4,0.3,0.7,0.4c1-2.6,2.5-5.1,1.6-8
		c-0.6-0.4-1.2-0.7-1.8-1.2h0c-1.5-1.2-2.5-2.7-2.5-5c0-1.5-0.7-2.8-2-3.1c-8.2-1.9-14.4-8.8-23.5-9c-4-0.1-6.6-4.9-10.8-5.8
		c-0.7-0.3-1.4-0.5-2-0.8c-2.9,0.4-6,0.3-8.7,1.4c-1.7,0.6-2.8,0.8-3.5,0.5c-0.1,0.1-0.1,0.3-0.2,0.4c-0.6,0.9-1.2,1.8-1.7,2.7
		c0,41.6,0,83.3,0,124.9c0,1.5-1.2,3.4,0.9,4.5c0.1-15.7,0.1-31.3,0.2-47c0-3.9-0.1-7.8-0.1-11.7c0-6.2,0-12.4-0.1-18.6
		c0,0.7,0,1.4,0,2.1c0,5.5,0,11,0.1,16.5c0,0,0,0,0,0c0,3.9,0.1,7.8,0.1,11.7c-0.1,15.7-0.1,31.3-0.2,47h202.5
		C201.3,299.4,201.2,298.1,199.2,297.9z"/>
</g>
<g id="Layer_2">
	<g>
		<g>
			<path class="st1" d="M302.4,240.2c0-2,0-4,0-6c-1.6,0-2.6,0.8-3.1,2.1c-1.9,5.1-6.2,6.5-11.1,6.9c-1.8,1.5-4.5,0-6.1,2
				c0,0,0,0,0,0c-2.7,2-1.8,7.3-6.9,7.2c-5.5,1.7-10.8,3.4-11.6,10.3c-0.1,1.1-1.5,1.8-2.8,1.5c-6-1.2-8,3.7-11.1,6.9
				c0.3,1.6,1.3,4.3,0.7,4.6c-3.6,2.3-5.1,5.8-7.2,9.1c-0.6,1-3.1-0.1-4.7-0.8c-3.7-1.6-7.5-1.7-11,0.6c-2.5,1.7-5.5,0.4-8.1,1.5
				c-0.4,0.6-0.7,1.2-1.1,1.9c0.2,3.4,0,6.5-3.9,8.3c-1.7,0.8-2.6,2.6-2.3,4.6c1.7,0,3.4,0,5.1,0c8.8,0,17.6,0,26.3,0
				c18.6,0,37.1-0.1,55.7,0.1c2.5,0,3.1-0.6,3.1-3.1C302.4,278.7,302.4,259.4,302.4,240.2z M283.9,245.7c0,0-0.1-0.1-0.1-0.1
				C283.8,245.6,283.8,245.7,283.9,245.7z M296.5,247.4c1.3-1.1,2.2-2.6,2.8-4.3c0,0,0,0,0,0C298.7,244.8,297.8,246.3,296.5,247.4z"
				/>
			<path class="st1" d="M199.2,297.9c-0.1-1.6-1.6-1.8-2.5-2.7c-3.1-3.2-8.1-3.5-10.8-7.2l-0.9-1.1c-2.7-0.7-6.2,1.8-8.3-1.9
				c-3.4-0.8-4.4-3.4-5-6.3c-3.6-0.3-1.8-4.6-4.4-5.6c-9,1-13.9-4.1-17-11.5c-3.2-1-6.3-2.2-9.8-1.7c-0.6,0.1-1.7,0.1-1.9-0.2
				c-1.9-2.8-5.2-4-7.4-6.4c-2.2-0.3-4.5-0.2-5.1-3c-2.2,0.1-4.1-0.2-4.2-2.9c-3.6-3-6.5-7.1-11.9-7c0,0,0,0,0,0
				c-0.2-1.2-0.8-1.9-2.1-1.9h0c-1-3.3,2.4-6.6-0.1-9.9c-0.4-0.7-0.7-1.4-1.1-2.1c0,0,0,0,0,0c0.4-2.4,2.6-4.3,2.3-6.9
				c-0.9-1.2-1.9-2.3-2.1-3.9c0.3-1.6,0.6-3.3,0.9-4.9c-2.3-1.5-4.6-3.2-7.1-4.5c-1.4-0.8-3.5-1.7-4.7-1.2c-4.3,1.6-8,1.9-11.3-1.7
				c-0.8-0.8-2-0.3-2.7,0.4c-1.8,2-4.1,2-6.5,1.9c-4.5,2.6-8,2.1-11.4-1.7c-1.2-1.3-2.6-1.6-4-1.1c-3.5,1.3-5.7-0.2-7.4-3
				c0,0,0,0,0,0c0,0,0,0,0,0c-1.1-0.5-2.4-2-3.2-1.4c0.8-0.7,2.1,0.8,3.2,1.3c1-2.6,2.5-5.1,1.6-8c-0.6-0.4-1.2-0.7-1.8-1.2h0
				c-1.5-1.2-2.5-2.7-2.5-5c0-1.5-0.7-2.8-2-3.1c-8.2-1.9-14.4-8.8-23.5-9c-4-0.1-6.6-4.9-10.8-5.8c-0.7-0.3-1.4-0.5-2-0.8
				c-2.9,0.4-6,0.3-8.7,1.4c-1.7,0.6-2.8,0.8-3.5,0.5c-0.1,0.1-0.1,0.3-0.2,0.4c-0.6,0.9-1.2,1.8-1.7,2.7c0,41.6,0,83.3,0,124.9
				c0,1.5-1.2,3.4,0.9,4.5c0.1-15.7,0.1-31.3,0.2-47c0-3.9-0.1-7.8-0.1-11.7c0-6.2,0-12.4-0.1-18.6c0,6.2,0,12.4,0.1,18.6
				c0,0,0,0,0,0c0,3.9,0.1,7.8,0.1,11.7c-0.1,15.7-0.1,31.3-0.2,47h202.5C201.3,299.4,201.2,298.1,199.2,297.9z M3.6,186.3
				c-3.2,0.9-5.1,3.5-5.2,6.4C-1.5,189.8,0.3,187.2,3.6,186.3c1.3-0.4,2.3-1,3.1-1.9C5.8,185.2,4.9,185.9,3.6,186.3z"/>
		</g>
		<g>
			<g>
				<path class="st2" d="M63.1,233.9"/>
			</g>
		</g>
		<g>
			<g>
				<path class="st2" d="M140,170.3"/>
			</g>
		</g>
		<path class="st3" d="M12.9,217.3c0.3-4.9,1.2-9.3,7-11.1c2.4-0.8,4.9-2.9,0.3-4.9c-3.7-1.6-1.4-2.9,0.2-4.6c4.9-5,11.1-4.1,16-1.9
			c5,2.2,9.9,6,11.8,11.8c0.4,1.2,0.8,2.1,2,2.7c0.2,3.1-0.1,6.2,0.9,9.2c0.9,2.9-0.6,5-3.6,5.3c-2.9,0.3-3.5-1.9-3.3-4.3
			c0.2-2.8-0.8-4.5-4-4.1c0-0.3,0-0.6,0-0.9c-0.3-0.4-0.7-0.8-1-1.2c0,0,0,0,0,0c0.2-1.6-0.3-2.9-1.5-4c-5.6-5.3-13.5-4.3-18,1.9
			c-1.6,2.2-1.9,5.8-5.7,6.1C13.6,217.3,13.3,217.3,12.9,217.3z"/>
		<path class="st3" d="M-1.1,253.9c0-3.9-0.1-7.8-0.1-11.7c2.1-1.6,4.2-3.2,6.2-4.9c2.1-1.9,4.4-3.7,3.4-7.1
			c-0.2-0.6-0.1-1.3,0.1-1.9c2-5.2,2-5.2-4.5-4.8c1.9-3.4,4.1-5.7,7.9-6.3c0,10.6,0,21.3,0,31.9c-3-0.1-5.3,1.5-7.6,3
			C2.6,253.1,1,254.3-1.1,253.9z"/>
		<polygon class="st3" points="0,211.5 30.6,218.5 53.2,289.5 28.2,294.9 2.3,290.3 		"/>
		<path class="st0" d="M199.2,300.9c-23.6,0-47.3,0-70.9,0c0.9-6.4-3.5-9.2-8.1-12c-0.3-0.3-0.6-0.7-1-1l0-0.1
			c-0.3-0.6-0.5-1.3-0.8-1.9c-2.4-3.3-6-4.6-9.8-4.8c-3.1-0.2-4.4-1.3-4.8-4.3c-0.6-4.3-2.3-7.8-7.2-9.7c-4.5-1.7-8-4.9-6.9-11
			c0.9-5-2.2-7.9-7.1-9.3c-3.6-1.1-7.4-0.1-11-1.1c-0.3-0.2-0.5-0.5-0.8-0.7c-1.7-3-2.6-7.4-7.7-5.6c-3.9,1.4-6.3,0.3-7.8-3.3
			c-0.7-1.2-1.9-1-3-1.2c0.1-6.1,4.4-10.2,7.2-15c0.8-1.4,2.9-3.4,1.6-4.3c-3.4-2.4-4.6-8.8-10.9-6.4c-1.1-0.6-1.6-1.5-2-2.7
			c-1.9-5.9-6.8-9.6-11.8-11.8c-4.9-2.2-11.2-3.1-16,1.9c-1.6,1.7-3.9,3-0.2,4.6c4.6,2,2.1,4.1-0.3,4.9c-5.8,1.8-6.7,6.2-7,11.1
			c-0.3,0-0.7,0-1,0c-3.8,0.6-6.1,3-7.9,6.3c6.5-0.5,6.5-0.5,4.5,4.8c-0.2,0.6-0.3,1.3-0.1,1.9c1,3.4-1.3,5.2-3.4,7.1
			c-2,1.8-4.1,3.3-6.2,4.9c0-12.4-0.1-24.8,0-37.3c0-2-1.3-4.8,2.2-5.7c1.2-0.3,0.1-0.6-0.3-1c-4.1-4.1-2.5-10.5,2.9-12
			c1.7-0.5,2.9-1.5,3.9-2.9c0.8-1,1.2-2.5,2.8-2.7c1.3-0.2,4.2,1.5,3.3-1.6c-0.9-3-2.5,0.4-3.9,0.3c-1.4-0.1-2.8,0-3.4-1.5
			c-0.8-1.8,0.8-2.1,2-2.7c6-3.4,8.6-3.2,13.7,1.8c1.6,1.6,3.2,2.8,5.7,2.5c10-1.1,18.7,5.8,19.7,15.6c0.2,1.8-0.4,3.9,1.8,5.6
			c0.2-4.8,2.2-1.9,3.8-1.2c0,0,0,0,0,0c-1.9,3.1-2.1,6.2,2.3,6.6c3.7,0.4,6.9,1.3,10.2,2.9c2.1,1.1,3.5,2.9,5.8,3.7
			c5.6,2,5.9,3.9,2.2,8.5c-3.6,4.4-7,8.8-5.2,15.7c3-3.5,4.9-1.7,6.8,0.8c0.8,1.1,2.3,3.7,3.5,1c1.6-3.6,4.4-6.4,5.7-10.3
			c2-5.8,5.5-11.2,8.9-16.5c1.9-2.9,5.5-3.2,8.8-2.3c3,0.8,1,3.7,1.7,5.2c1.5,3.4,2.2,6.4,1,9.9c-0.3,0.9,1.2,1.4,2.3,1.4
			c0.4,0.7,0.7,1.4,1.1,2.2c-1.1,1.6-2.5,3.1-3.1,4.8c-1.1,2.8-0.5,5.1,3.3,5c1.2,0.1,1.9,0.8,2.1,1.9c-2.3,3.1-1.1,5.2,2.1,6.6
			c3.2,1.4,3,3,0.7,5.1c-2.3,2.1-4.8,4.3-4.9,7.8c0,4.8,0,9.5,0,14.3c0,1.5,0.1,3.5,2.3,2.8c4.2-1.4,9.2-2.3,12-5.1
			c2.6-2.6,5.5-4.6,8.5-6.4c5.1-3,10.7-1.2,16.1-0.6c0.5,0.1,1.1,0.9,1.3,1.4c1.6,4.8,5.4,7,9.9,8.4c1.4,0.5,4.3,1.6,2.8,3.1
			c-5.6,6.1-0.7,12.5-2.1,19.5c2.9-2.6,3.2-6.1,6.1-7.7c0.6,3.2-2.7,6,0.1,9.8c0.7-6.1,4.3-8.8,9-10.2c4.8-1.4,9.4-1.8,11.5,4.3
			c0.1,0.4,1.2,0.5,1.8,0.7c3.9,1.3,7.9,2.6,11.8,3.9l0,0C199.2,298.9,199.2,299.9,199.2,300.9z M19.7,184.4c3.3,1.4,6.8,1,11.2,0.8
			C26.7,182.6,23.2,183.2,19.7,184.4z M7.2,192.2c5.4-0.9,5.4-0.9,6.7-5.4C11.3,188.9,9.2,190.6,7.2,192.2z"/>
		<path class="st0" d="M92.8,300.9c-11.8,0-23.6,0-35.4,0c0.9-2.8-3.2-3.3-2.9-5.9c0.8-5.2-2.6-7.2-6.7-9.1
			c-1.8-0.8-4.5-0.2-5.1-1.5c-3-5.9-7.7-8.1-14.2-8.9c-3.7-0.5-5-5.6-8.5-7.7c-1.4-0.9-0.3-2.6,1.4-2.6c2.7-0.1,3.8-2,4.7-3.9
			c1.3-2.6-0.7-4.2-2.6-4.9c-1.5-0.5-5.1-0.7-4.8,0.6c1.2,5.2-3.5,7.8-4.5,11.9c-0.3,1.1-0.4,2.9,1.2,2.6c4-1,5.2,3,9.4,3.8
			c-3,1-4.8,1.5-6.5,2.3c-1.6,0.8-3.7,1.1-5.1,3.7c3.7-1,6.7-1.8,9.7-2.6c0.9-0.2,2.1-0.9,2.6,0.4c0.4,1.1-0.8,1.7-1.6,2.2
			c-2.7,1.4-6.4,1.5-7.9,4.9c-0.7,0.6-1.4,1.3-2.1,1.9c-5,2.9-4.9,8.9-8.1,13c-2.4,0-4.7,0-7.1,0c0.1-15.7,0.1-31.3,0.2-47
			c2.1,0.4,3.7-0.8,5.4-1.8c2.3-1.4,4.6-3.1,7.6-3c0.4,0.3,0.7,0.6,1.1,1c0.3,2.2,1.7,2.1,2.6,0.7c3.8-5.3,10.4-1.3,14.8-4.4
			c0.2-0.2,1.3,0.4,1.6,0.9c1.6,2.5,3.5,1.3,5.2,0.3c7.3-3.9,15.4-0.1,23-2.3c3.1-0.9-1.1,3.2,1.7,3.7c2,0.4,3.8-1.8,5.8-0.3
			c0.2,0.1,0.1,0.6,0.1,0.9c-0.3,2.3,1.2,2.4,2.8,2.4c4,0.1,2.7,1.8,1,3.5c-3.7,3.8-8.5,6.5-11.3,11.2c-0.9,1.5-2.9,3.1-0.9,4.7
			c1.5,1.2,3.8,0.7,5-0.9c3.8-5.4,10.3-4.2,15.4-6.4c1.1-0.5,2.9-0.6,4.6,0.7c-5.3,5.1-10.6,10.1-13,17.9c3.3-0.7,5-2.5,6.6-3.9
			c3.9-3.3,7.5-6.8,13.3-5c1.2,0.4,3.1-0.5,3.8,0.7c0.9,1.7-1.2,1.9-2,2.8c-1.4,1.6-3.2,3.3,1,3.6c1.9,0.1,1.6,1.3,0.7,2.4
			c-3.4,4.5-6.6,9.3-13.3,9.5c-1.1,0-2.2,0.7-3.2,1.2c-0.5,0.3-1,1-1,1.5c0,1.1,1.3,1.3,1.9,1c2.6-1.6,5.3,0.5,7.9-0.4
			C91.1,295.1,93.2,296.6,92.8,300.9z"/>
		<path class="st0" d="M243.7,300.9c-8.8,0-17.6,0-26.3,0c1.7-3,6-4.7,4.3-9.3c-0.5-1.3,1.1-2.1,2.3-2.2c5.9-0.6,11.5-3.8,17.8-2
			c2,0.6,5.2,0.4,5.6-1.9c0.4-3.2,2-4.9,4.5-6.4c1.2-0.7,0.9-2.4,0.9-3.7c-0.2-5.7,2.1-8.1,8-8.4c4.6-0.2,8.1-2,9-6.9
			c0.4-2.2,1.4-2.9,3.7-3.1c10.3-0.8,10.6-1.2,10.8-10.8c1.9-0.6,3.9,2.9,4.8,1.2c2.4-4.6,6.7-3.2,10.2-4.3
			c-0.8,2.3-2.1,4.1-4.3,5.3c-1.1,0.6-2.9,1.7-2.1,2.9c2,2.7-0.2,3.3-1.7,4.5c-2,1.6-3.2,3.6,0,5c3.1,1.4,1.6,3.2,0.4,4.1
			c-2.4,1.9-2.3,4.2-2.3,6.7c0,4.5,0,8.9,0,13.4c-2.2-4.9-0.4-10.1-1-15.1c-0.1-1,0.1-2.3-1.2-2.3c-0.9,0-1.9,0.6-2.7,1.1
			c-1,0.7-0.8,1.6-0.3,2.6c3,6.1,2.4,8.2-4.1,10.7c-6.2,2.4-12.7,4.1-19.1,6C252.4,288.7,248,294.8,243.7,300.9z"/>
		<path class="st3" d="M92.8,300.9c0.3-4.4-1.7-5.9-5.8-4.5c-2.6,0.9-5.3-1.2-7.9,0.4c-0.6,0.3-1.8,0.2-1.9-1c0-0.5,0.5-1.3,1-1.5
			c1-0.6,2.1-1.2,3.2-1.2c6.7-0.2,9.9-5,13.3-9.5c0.9-1.2,1.1-2.3-0.7-2.4c-4.2-0.3-2.4-2-1-3.6c0.8-0.9,3-1.2,2-2.8
			c-0.7-1.2-2.5-0.3-3.8-0.7c-5.8-1.8-9.4,1.7-13.3,5c-1.7,1.4-3.3,3.2-6.6,3.9c2.4-7.8,7.7-12.7,13-17.9c-1.7-1.3-3.5-1.2-4.6-0.7
			c-5.1,2.2-11.6,1-15.4,6.4c-1.2,1.6-3.4,2.2-5,0.9c-2-1.6,0-3.3,0.9-4.7c2.8-4.7,7.6-7.4,11.3-11.2c1.7-1.7,3-3.4-1-3.5
			c-1.6-0.1-3.2-0.2-2.8-2.4c0-0.3,0.1-0.8-0.1-0.9c-2-1.6-3.8,0.6-5.8,0.3c-2.8-0.5,1.4-4.6-1.7-3.7c-7.6,2.2-15.7-1.6-23,2.3
			c-1.8,0.9-3.6,2.2-5.2-0.3c-0.3-0.5-1.4-1-1.6-0.9c-4.4,3.1-11-0.9-14.8,4.4c-1,1.4-2.3,1.4-2.6-0.7c1.5-1.5,0.7-3.5,0.9-5.2
			c0.3-2.9-0.8-6,0.8-8.8c3.9,6.8,9.4,6.2,17.3,4.7c1.2-0.2,2.6-0.9,2.8,0.7c0.8,6,3.1,2.5,4.6,0.6c1.2-1.4,2.5-2,4.3-2
			c2.3,0.1,3.8-1.2,4.5-3.3c1-1.4,2.5-1.6,4-1.8c1.1,0.1,2.3,0,3,1.2c-1.8,2.7,0.2,5.6,1.9,5.4c5.3-0.7,9.5,0.6,13.6,3.5
			c0.3,0.2,0.5,0.5,0.8,0.7c0.2,2.7,2.2,3.2,4.2,3.3c2.2,0.1,4.3,0.7,6.4,1c4.9,0.7,6,3.5,5.3,7.7c-1.2,7.2,1,10.4,8.5,12.3
			c2.9,0.8,4.6,2.6,4.8,5.6c0.1,2.2,0,4.3,0.1,6.5c0,1.8,0.5,3.7,2.6,3.6c5-0.2,9.9,2,14.9,0.1c0.3,0.6,0.5,1.3,0.8,1.9
			c-4.2,0-8.3,0-12.5,0.1c-1.3,0-3.4,0.6-1.7,2.1c3.1,2.6,2.5,8.4,8.1,8.8c0.4,0,0.7,1.4,1,2.1C107,300.9,99.9,300.9,92.8,300.9z"/>
		<path class="st4" d="M243.7,300.9c4.3-6.1,8.7-12.2,17.2-12.9c8.5,2.1,17.2-0.5,25.8,0.7c1.8,0.2,2.4-2,2.6-3.7
			c0-4.5,0-8.9,0-13.4c0-2.5-0.1-4.8,2.3-6.7c1.2-0.9,2.7-2.8-0.4-4.1c-3.1-1.4-1.9-3.4,0-5c1.5-1.2,3.7-1.8,1.7-4.5
			c-0.9-1.2,0.9-2.3,2.1-2.9c2.2-1.2,3.5-3,4.3-5.3c0.3-1.7,1.1-3,3.1-2.9c0,19.3-0.1,38.5,0.1,57.8c0,2.5-0.6,3.1-3.1,3.1
			C280.8,300.9,262.3,300.9,243.7,300.9z"/>
		<path class="st4" d="M5.8,300.9c3.1-4.1,3-10.1,8.1-13c9.4,0,18.7,0,28.1,0c-8.6-2.7-17.3-1.6-25.9-1.9c1.5-3.4,5.1-3.4,7.9-4.9
			c0.9-0.5,2-1,1.6-2.2c-0.5-1.3-1.6-0.7-2.6-0.4c-3,0.8-6,1.6-9.7,2.6c1.4-2.6,3.5-2.9,5.1-3.7c1.6-0.8,3.4-1.2,6.5-2.3
			c-4.2-0.8-5.4-4.7-9.4-3.8c-1.6,0.4-1.5-1.4-1.2-2.6c1-4.1,5.7-6.7,4.5-11.9c-0.3-1.3,3.3-1.1,4.8-0.6c1.9,0.7,3.9,2.3,2.6,4.9
			c-0.9,1.9-2,3.8-4.7,3.9c-1.7,0-2.8,1.8-1.4,2.6c3.5,2.1,4.8,7.2,8.5,7.7c6.5,0.8,11.2,2.9,14.2,8.9c0.6,1.3,3.4,0.7,5.1,1.5
			c4.1,1.9,7.5,3.9,6.7,9.1c-0.4,2.6,3.8,3,2.9,5.9C40.2,300.9,23,300.9,5.8,300.9z"/>
		<path class="st4" d="M114.1,300.9c-0.3-0.7-0.6-2.1-1-2.1c-5.6-0.3-5.1-6.1-8.1-8.8c-1.7-1.5,0.4-2,1.7-2.1
			c4.2-0.1,8.3-0.1,12.5-0.1c0,0,0,0.1,0,0.1c0.3,0.3,0.6,0.7,1,1c4.6,2.8,9,5.6,8.1,12C123.6,300.9,118.8,300.9,114.1,300.9z"/>
		<path class="st5" d="M199.2,297.9c2,0.2,2.1,1.6,2,3c-0.7,0-1.4,0-2,0C199.2,299.9,199.2,298.9,199.2,297.9z"/>
		<path class="st4" d="M118.4,285.9c-5,1.9-9.9-0.4-14.9-0.1c-2.1,0.1-2.5-1.8-2.6-3.6c0-2.2,0-4.3-0.1-6.5c-0.1-3-1.8-4.9-4.8-5.6
			c-7.5-2-9.7-5.1-8.5-12.3c0.7-4.3-0.4-7.1-5.3-7.7c-2.1-0.3-4.2-0.9-6.4-1c-2.1-0.1-4.1-0.6-4.2-3.3c3.6,1,7.3,0,11,1.1
			c4.8,1.4,7.9,4.3,7.1,9.3c-1.1,6,2.4,9.3,6.9,11c4.9,1.9,6.6,5.4,7.2,9.7c0.5,3.1,1.7,4.1,4.8,4.3
			C112.4,281.4,116,282.6,118.4,285.9z"/>
		<path class="st4" d="M70.8,245.1c-4.1-2.9-8.4-4.2-13.6-3.5c-1.7,0.2-3.6-2.7-1.9-5.4c1.5,3.6,3.9,4.7,7.8,3.3
			C68.2,237.7,69.1,242.1,70.8,245.1z"/>
		<path class="st6" d="M120.2,288.9c-0.3-0.3-0.6-0.7-1-1C119.6,288.3,119.9,288.6,120.2,288.9z"/>
		<path class="st3" d="M289.3,285c-0.2,1.7-0.8,3.9-2.6,3.7c-8.6-1.1-17.2,1.4-25.8-0.7c6.4-2,12.8-3.7,19.1-6
			c6.5-2.5,7.1-4.6,4.1-10.7c-0.5-1-0.7-1.9,0.3-2.6c0.8-0.6,1.8-1.1,2.7-1.1c1.3,0,1.1,1.3,1.2,2.3
			C288.8,274.9,287.1,280.1,289.3,285z"/>
		<path class="st3" d="M14.7,236.1c0.2-2.3,0.1-4.5-0.6-6.8c-1.1-4-1.7-8-0.1-12c3.8-0.2,4.1-3.9,5.7-6.1c4.5-6.2,12.4-7.2,18-1.9
			c1.2,1.1,1.7,2.4,1.5,4c-2.7-3.1-6-5.9-10.3-4.6c-7.9,2.3-13.2,11.8-11.9,20.5c1.1,7.6,7.1,10.5,14.2,7c3.6-1,7.4-1.1,10.5,0.5
			c2.5,1.2,4.4,0.7,6.6,0.2c-0.7,2.1-2.2,3.4-4.5,3.3c-1.8,0-3.1,0.5-4.3,2c-1.6,1.9-3.8,5.4-4.6-0.6c-0.2-1.6-1.6-0.9-2.8-0.7
			C24.2,242.4,18.6,243,14.7,236.1z"/>
		<path class="st0" d="M31.1,236.2c-7.1,3.5-13.1,0.6-14.2-7c-1.2-8.7,4-18.2,11.9-20.5c4.3-1.2,7.6,1.6,10.3,4.6c0,0,0,0,0,0
			c0.3,0.4,0.7,0.8,1,1.2c0,0.3,0,0.6,0,0.9c-1.4,3.9-7.1,2.9-8.5,7c-0.3,0.8-1.6,1.4-1.5,2.4C30.4,228.6,30.8,232.4,31.1,236.2z"/>
		<path class="st7" d="M40.2,214.5c-0.3-0.4-0.7-0.8-1-1.2C39.5,213.7,39.8,214.1,40.2,214.5z"/>
		<polygon class="st0" points="9.4,195.3 35.3,186.1 25.9,181.4 14.1,183.8 4.7,193 		"/>
	</g>
</g>
</svg>
