<?xml-stylesheet type="text/css" href="../main.css"?>
<svg id="moon" data-name="Layer 1" xmlns="http://www.w3.org/2000/svg" viewBox="0 0 297.2 297.53"><defs><style>.cls-1{fill:#e2c8e8;}.cls-2{fill:#003;}</style></defs><title>hwk04-svg1-moon</title><circle class="cls-1" cx="149.02" cy="148.18" r="148.18"/>
<path class="cls-2" d="M206,13.7c-7.42-4.95-16-6.27-24.26-8.84l-.42,1L200,13.41c-2.29.94-4.24-.13-6.13-.58-7.44-1.78-14.92-3.5-22.58-3.29-3.84.11-5.48-3.28-9.46-4,3.63-2.34,6.77-1.92,9.77-2.41-14.52,2.09-29.24-.81-43.7,2.15a15.09,15.09,0,0,1-6.24.16c-9.71-2-18.2,2.15-26.82,5.57-1,.42-1.83,1.54-2.74,2.34l-.69.73a12.2,12.2,0,0,1-5.3,4.75A145.72,145.72,0,0,0,62.24,34.29c-2.71,2.19-5.46,4.29-8.89,5.19-1.54.41-2.48,1.6-3.46,2.79a26.14,26.14,0,0,1-4,4.33c-6.07,4.54-11.2,9.66-12.31,17.78-.66,4.83-3.36,8.8-5.55,12.92-3.23,6.06-6.46,12.09-8.73,18.62-.32.92-.5,2.07-1.83,2.33-.53-2,1.21-3.41.72-5.42-2.44,5.38-4.68,10.83-7.81,15.86-.72,1.17-1.09,5.23,0,7.53,4,8.65-.33,15.58-3.92,22.74-1.89,3.75-4.32,7.44-1.23,12.09-.61-6.88,2.43-11.92,7.06-16.7,1.29,2.72.11,5.27-.53,7.47a88.39,88.39,0,0,1-5.15,13.56c-1,2,.17,3.18.38,4.73.26,2,.47,3.94.8,6.77.09-4.13-.22-7.49.91-10.68s1.29-6.85,3.68-9.73c-1.71,8.87-3.61,17.7.1,26.46a6.85,6.85,0,0,1,1.1,4c.87,8.31,3.3,16.29,4.73,24.53-5.11-9.39-6.72-19.93-9.75-30,.62,7.09,2.49,13.91,4.32,20.74,3.23,12.05,6.45,24,12.84,34.93a68.79,68.79,0,0,0,6.72,8.93c-3.62-.38-5.34-3.09-6.91-5.94-3.33-6-6.61-12-9.91-18.05-.37-.67-1-1.35-1-2-.37-13.18-7.4-24.81-8.4-37.83a77.09,77.09,0,0,0-4.58-22.36c-1.76-4.52-.38-9.08.52-13.57.75-3.74,2.53-7.54,2.26-11.19C3.3,110,13.6,99.31,18.39,86.52c2.91-7.73,8.36-14.25,11.75-21.68C34.29,55.73,40.46,48.59,47,41.53c1.78-1.92,3.41-3.82,6.16-4.28,2.17-.35,3.63-2.1,5.25-3.42A163.49,163.49,0,0,1,76.57,21.08C82.43,17.5,88.2,13.82,93.86,9.91,101.52,4.63,110.48,0,120.8,3.18c3.81,1.17,7.75-.42,11.57-.93,9.13-1.24,18.35.21,27.36-.88,14.58-1.76,27.73,3.12,41.14,7.28C203.38,9.43,205.73,10.47,206,13.7Z" transform="translate(-0.8 -1)"/>
<path class="cls-2" d="M156.48,291.87c11.92.52,23.47-1.52,35-4.46,2.66-.68,6.38.22,8.37-1.65,4.14-3.89,9.5-2.78,14-4.79,7.72-2.06,12.51-8.38,18.34-13.19,7.19-6,17.83-7.89,22.27-16.9,4.24-8.59,10.81-15.32,15.37-23.54,1.29-2.31,2.5-5,5.59-5.51-2.69,4.42-5,9.15-8.15,13.2-5.32,6.83-9.73,14.23-14.27,21.56-1.3,2.1-3,4.12-5.32,4.8-9.68,2.84-15.86,10.64-23.13,16.85-3.11,2.65-6.17,4.72-10.35,4.81-2.43,0-4.64,1.15-6.83,2.15-12.21,5.59-25.23,8.7-37.88,13-3.24,1.09-6.19-.63-9.3-.58-9.43.15-19-1.06-28.24-.45s-17.67-1.55-26.32-3.85c-4.74-1.26-9-3-12.72-6.4s-8.57-5-13-7.3c-8.54-4.49-15.59-11.44-24.46-15.36A2.5,2.5,0,0,1,54,262.11L59.2,264C53.88,256.81,50,249.74,43,245.43c-.66-.41-2.07,0-1.76-1.33s1.9-2,2.22-3.64c.11-.56,1.77.15,2.25.81,2.78,3.84,6.64,6.59,9.66,10.1,2,2.36,3.69,5.11,5.94,7.38,1.68,1.69,3,3.74-1,6.71,3.76-1,5.62-.11,7.49,1.21A155.5,155.5,0,0,0,90.21,280.2c1.15.56,3.22.92.24,2.12-.58.23.32,1,.79,1.26,6,3.71,12,7.1,19,8.48,3.58.7,3.24-2.23,4.41-3.83.22-.31.33-1,.51-1a14,14,0,0,1,10.4,3.4,2,2,0,0,1,.75,1.48c-.18,1-1.08.8-1.81.7-2.94-.39-5.86-1.13-9.51-.25,3.25,2,6.52,3.33,9.42,2.62,7.37-1.8,14.59.65,21.88-.12-3.53-.07-7.06-.09-10.2-2.41,6.89.87,13.74,1.56,20.43-.81Z" transform="translate(-0.8 -1)"/>
<path class="cls-2" d="M245.83,45c-6.33-2-10.28-7.09-14.27-11.94-1.79-2.17.33-2.91,2.31-3.11-9.42-3.32-17-10.06-26.13-13.75A2.26,2.26,0,0,1,206,13.8a4.23,4.23,0,0,1,1.31.19c17.76,9,35.74,17.69,50.11,32.24a13.42,13.42,0,0,1,3.46,5.29,42.55,42.55,0,0,0,14.18,20.63,21.91,21.91,0,0,1,8.48,18.9c-.34,5.47,2.74,10,4,15s2.27,10.2,6.53,14.17c3.1,2.9,2.23,7.78,2.73,11.82.6,4.85.72,9.76,1.05,14.65.18,2.63.32,5.51-1,7.64-4.13,6.51-3.87,14-5.12,21.15-1.72,9.78-4.55,19.3-6.25,29.11-1.11,6.43-3.91,12.54-9.38,16.74-.09-1.69,1.07-2.79,1.83-4.08a51.14,51.14,0,0,0,7.26-21c1-9.41,4.45-18.39,5.48-27.87.91-8.36,1.27-16.66-.8-24.87-.92-3.65.5-6.9,1.19-10.41.71,3.52,4,5.66,4.82,9.26-.62-5.59-1.14-11.18-1.91-16.75a9.76,9.76,0,0,0-1.76-4.64C285,111.82,284,100.65,281.59,90c-.19.69-.48,1.72-.92,3.34-5.41-7-10.63-13.61-14-22.15,1.87.39,1.94,1.46,2.45,2.14.76,1,1.37,3.09,2.87,1.8,1.31-1.13.33-2.95-.9-3.9-5.23-4-7.86-10-10.88-15.56a34.8,34.8,0,0,0-6.59-9.14c-2.26-2.15-4.47-2.83-7.29-2.12A1.14,1.14,0,0,0,245.83,45Z" transform="translate(-0.8 -1)"/>
<path class="cls-2" d="M77.37,171.16c1-1.26,1.37-3,3.42-4.15-.41,5.4-1.34,10.46.38,15.45-.25-8.21,3.62-15,7.2-21.77,3.16-6,7.94-9.69,15.21-9.32,3.32.16,6.49-2.23,10-1.38,9.16,2.2,16.47,6.93,21,15.67,3.05,5.86,3.27,11.71.15,17.54-1.6,3-4.93,3.16-7.64,4.31-6.71,3.72-9.11,9.86-9.35,17.27a16.93,16.93,0,0,1-.86,3.47l-2.81-1.86,0-.06c-.14-1.19.5-3.31-1.58-2.76-1.45.39-3.76,1.15-3.64,3.21.06,1.13,0,3.94,2.87,3h0v1.42c0,.2,0,.4.07.6l-6.52,0-2-1.24c0-2.25-1.76-2-3.14-2.42-3.67-1.11-7.32-.64-11.06-.6-3,0-4.36.18-5,3.15-.84,3.67-1.84,7.31-2.78,11-1.22-5,.28-9.58,1.23-14.23.18-.87,1.82-2.06.16-2.62-2.46-.82-1.5-3.05-2.3-4.51a23.3,23.3,0,0,0-6.75-6.15c-3.39-6.68-6.64-13.39-3.48-22.67.94,7.57-1.45,15.3,6.16,19,1.27.89,1.79,2.89,3.85,2.74.5-1.81-1.07-2.32-1.86-3.28-5.11-6.29-8-17.83-3.24-24.49v10.22C78.1,175.41,76.93,172.86,77.37,171.16Zm9.38,8.8c.53,2,1.07,3.59,1.35,5.24.53,3.06,9.59,12.45,12.5,12.67,2.65.2,4.61-1.27,6-3.4s2.65-3.18,5.15-2.53a2.77,2.77,0,0,0,2.46-.63c3-4.79,8.64-6.55,11.83-11,.88-1.24,5.29-3.07-.34-3.95-1-.15-.33-1.59-.53-2.31-1-3.63.63-7.42-1.66-11.14-3.89-6.31-10.24-8.07-16.27-9.16-5.52-1-11.46-.24-14.94,6.42C88.93,166.56,90.41,174.07,86.75,180Z" transform="translate(-0.8 -1)"/>
<path class="cls-2" d="M208.43,212.68c-2-2.48-2.31-2.42-5.78,1.23-1.11-1.3.38-2.18.47-3.24.12-1.4,2.52-4.24-1.73-3.31-.22,0-.74-.34-.73-.4,1.81-5.83-5.87-2.23-6.25-6.79-.3-3.61-2.57-7-3.32-10.85-.53-2.68-3.5-1.9-5.29-2.67-4.76-2.05-7.21-1.49-10.63,1.43-1.67-3.28-1.67-3.28,3.17-4.79-8.14-4.41-14.85-2-21.16,4.13-2.63,2.57-6.15,4.18-10,6.72.56-2.71.93-4.52,1.3-6.33a8.48,8.48,0,0,0,5.55-6.06c.83-3,3.21-4.55,6.18-5.71.23,2.39-2.25,2.48-2.84,5.25,4.68-5.58,11.74-6.74,14.57-13.78.21,2,.26,3.68,2.75,2.51,5.87-2.76,9.13,3.14,13.7,4.74,1.76.61-.78,2.13-.65,3.58,2.54.26,4.15-2,6.44-2.44,4.3-.87,7.53.25,9.27,4.31,1.57,3.67,4.12,6.17,7.13,8.56,8.82,7,9.27,15.66,1.64,24C210.66,214.46,209.66,213.68,208.43,212.68Z" transform="translate(-0.8 -1)"/><path class="cls-2" d="M113.79,260.7c-5.37-9.79-15.07-12.46-24.31-15.87.81,1.52,2.43,1.74,3.8,2.32,6.33,2.68,12,6.24,15.91,12.23s1.9,10.78-5,11.87c-3.81.6-7.43-.42-11-1.47-1-.28-2.7-.54-1.57-2.41.68-1.14,1.59-2,2.87-.77,1.13,1.09,2.32,1.68,3.42.19,1.41-1.91-.78-2.09-1.53-3a2.85,2.85,0,0,1,.16-4.12c.72-.78.48-1.47-.31-1.82-1.28-.56-.87.72-1.15,1.26-.44.83,0,2.57-1.54,2.25-1.22-.25-3-.85-2.71-2.55.39-2.33,0-3.14-2.33-2.27a4.24,4.24,0,0,1-1.29.06c1.08-4-4.17-3.14-4.49-6.32a4.2,4.2,0,0,0-4-3.66c-1.86.08-3.91.09-5.76,2-2.91,3-1.45,4.81.6,6.84a37.21,37.21,0,0,0,12,7.72c.75.31,1.54.65,1.48,1.45-.08,1.16-1.19,1.22-2,1.32-9.31,1-19.29-9.69-17.62-19,.69-3.88,3.38-5.67,7-6a22.24,22.24,0,0,1,9.49.8c-.59-2.35-3.73-2.07-4-5.34,10.08,5.55,22.07,5.6,29.94,15C112,254.15,112.87,257.25,113.79,260.7Z" transform="translate(-0.8 -1)"/>
<path class="cls-2" d="M60.82,164.83c-3.25,4.17,1.93,7.75.08,13.21-2.23-11.58-8.62-18.11-18.35-21.91,4.2-1.53,5.22-1.08,13.61,5.66-2.44-3.68-4.67-7-6.88-10.36s-1.14-6.71-.61-10.13c.47-3,2.48-5.42,1.09-9.15-1-2.73.83-6.47,2.55-9.75,1.15,1.45.23,2.55,0,3.54a12.1,12.1,0,0,0,2.91,11c.43.5.89.72.09,1.26-4.39,2.94.11,5.2.82,7.52.86,2.81,3.57,2,5.24.82,1.32-.94,3.77.54,3.87-1.32.19-4,5.89-6.25,3.26-10.93-.56-1-.68-1.83,0-2.44,3.53-3.22-.78-7.12.95-10.62C70,120,63.3,118,61.68,119.07c-2.33,1.53-4.08,3.72-6,6-1.4-5.1.72-9.48,5.37-11.79,5-2.49,11.23-1.24,14.21,3,2.1,3,3.17,6.2,1.58,9.91a9.07,9.07,0,0,0-1,4.43c1.21,9-4.85,13.53-10.59,18.25-1.75,1.44-3.94,1.16-6,1.45.07,1.08.74,2.14,1.47,2,6.95-1.36,3.54,2.53,2.17,4.75-2.19,3.58-.72,7.27-.39,10.7.68,7.14,2.29,14.18,3.54,21.26.16.93.47,1.8,2.22,1.86-1.28-4.67-2.83-9.26-1.11-14.13.48,4.59,1.17,9.1,3.12,13.29a2.34,2.34,0,0,1-.77,2.9c-1.14.82-2.26.4-3.36-.24A4.46,4.46,0,0,1,64,188.84C63.78,180.84,61.85,173.09,60.82,164.83Z" transform="translate(-0.8 -1)"/><path class="cls-2" d="M27,185a11.84,11.84,0,0,1,5.21,5.66c2.19,5,6.54,7.38,11,9.53,3.13,1.51,5.24-1.27,7.12-2.92,1.25-1.09.74-3.62.7-5.68-.07-3.24-4.65-7.53,1.25-10.2-1.23-.68-4.61.39-2.51-2.79,1.53-2.32-1.24-2.46-1.69-3.8-1.45-4.28-3.12-9-7.43-11.08a5.27,5.27,0,0,0-7,1.91c-1.19,2.14-4.54,3.82-2.25,7.32.5.77-1.1,1.18-1.65,1.82s-1.4,1.88.13,2.29c.75.2,1.81-.72,1.52,1-.12.75-.09,1.59-1.13,1.6s-2,0-2.24-1.06c-1.23-6.26.47-11.86,4.2-16.78,3-4,7.43-5,12.09-3.13A15.52,15.52,0,0,1,46.72,160C55,165.2,61.49,182.13,58.63,191.6,56.7,198,52.83,202.44,46.05,204c-5.93,1.34-10.65-.21-14.27-5.1C28.94,195.05,28.84,190.3,27,185Z" transform="translate(-0.8 -1)"/><path class="cls-2" d="M111.21,138.84c-4.07.69-7.54,3.55-11.91,3.12-1.88-.19-3.87,0-5.5-1.25h7.47c-3.13-.12-4.59-3.71-8.65-3-4.4.81-3.8,4.38-6,6.57-.29-1.85.68-3.3-.79-4.81-.58,2-.86,4-2.65,5.11,1.79-4.92-2.5-8.39-3.21-12.75,1.65-.28,2.49,1.28,3.83,1.59a2.24,2.24,0,0,0,1.71-.44c.65-.59-.14-1-.44-1.49a9.78,9.78,0,0,1,3.29-12.73,14.07,14.07,0,0,0,2-1.22c5.11-4.33,7.78-4.84,12-2.24,3.74,2.31,5.57,8.11,4,12.94,2.69-1.56,2.29-4.26,3-6.63,1.38,3.33,1.38,3.33-1,8.15l4.38-2.08c-.08,3.51-5.56,4.17-3.48,8.44,1.76-2.92,3.4-5,7.57-4,3,.74.44-2.4,1-3.64,1.9,1,2.89,2.47,2.19,4.58a2.19,2.19,0,0,1-3,1.51C112.52,132.9,111.72,135.64,111.21,138.84Zm-17-22.34c-1.48,1.62-2.23,2.93-3.39,3.61-2,1.18-4.64,2.6-3.21,4.81,1.53,2.37,3.59,5.11,6.59,6,2.69.76,5.1-1.34,4.55-3.61-.64-2.65.76-6.66-3.69-7.83C94.21,119.22,93.56,118.27,94.2,116.5Z" transform="translate(-0.8 -1)"/><path class="cls-2" d="M149.93,127.53c5-2.28,2.45-7.47,3.46-11.08.8-2.85,2.94-5.58,2.28-9.37-.74-4.26-3.06-7.34-4.51-11-1.79-4.48-4.38-3-7.13-3.06a5.66,5.66,0,0,1-4.65-2.26c5.81-4,17.49-4.6,22-.69,1.92,1.67,3,4.52,4,7,3.56,8.49.43,22.46-8.89,27.18a61,61,0,0,0-6,4Z" transform="translate(-0.8 -1)"/><path class="cls-2" d="M220.36,149.14c3.84-1.44,5-3.89,2.73-7.63a1.55,1.55,0,0,1-.14-.43c-1.26-4.05-1.3-4-5.15-5.79-.57-.28-4.35,0-1.34-2.63-1-.87-1.53-3.17-3-2.24-3.3,2.06-2.65-1.2-3.41-2.46-8.07,5-10,14.74-4.26,23-2.33-.13-4.83,1.57-6-1.48s-3.55-5.41-1.81-9.56a102.88,102.88,0,0,1,4.87-9.54,15.48,15.48,0,0,1,18.48-7.59,16.11,16.11,0,0,1,11,16.53,12.28,12.28,0,0,1-7.87,10.83c-1.6.69-3.22,1.2-4.08-1.09Z" transform="translate(-0.8 -1)"/><path class="cls-2" d="M232.19,267.78c-5.83,4.81-10.62,11.13-18.34,13.19-1.87-2.12-4.66-4,.67-5.69,2.33-.77,4.09-3.66,5.89-5.78,1.18-1.38.07-2.37-1-3.41-4.55-4.43-12.82-4.55-20.08-.11A18.62,18.62,0,0,0,191,275.5c-.72-3.87,1.07-5.64,2.8-7.19,8.87-8,19.67-11.41,31-13.11a9.2,9.2,0,0,1,7.18,2.1c2.81,2.5,4.42,1,5.63-1.37a5.74,5.74,0,0,1,6-3.49c-2,4.87-3.64,9.75-8.56,12.47C233.9,265.53,233.13,266.81,232.19,267.78Z" transform="translate(-0.8 -1)"/><path class="cls-2" d="M185.08,43.88c-4.41-9.54-.59-14.54,9.7-16.53,9.1-1.76,21.64,3.87,26.7,11.84,3,4.72,1.63,9.67-3.5,11.54a42.28,42.28,0,0,1-8.32,1.65c-1.1.16-2.37-.44-1.84-1.84s1.57.31,1.81.19c3.07-1.5,6.66-1.65,9.52-3.3,1.73-1-1.88-3.09-.6-5-2.09-.55-3.64-3.12-6.14-2-1.69.78-3.12,2.51-3.37-1.26-.1-1.46-2-1.57-3.65-1.49-2.25.1-4.41,1-6.79.32-2.86-.76-.08-1.73-.32-2.81-3.53,1.32-6.87-1-10.45-.37-1.92.37-2.87,1.26-2.06,3,2.49,5.32,7,8.76,11.74,11.64,1.69,1,4.17-1.2,6.88-.07a12.21,12.21,0,0,1-7.24,2.23C192.82,49.54,188,48.24,185.08,43.88Z" transform="translate(-0.8 -1)"/><path class="cls-2" d="M73.58,194.08a23.3,23.3,0,0,1,6.75,6.15c.81,3.42-1.49,6-2.71,9,1.61-.09,1.45-3.09,3.18-1.73,1,.81.32,2.31-.19,3.4C77.24,218,78,224.71,82.2,231.18c-.46,2,1.68,3.07,1.89,5.37-12-5.76-11.72-18.47-17.19-28.86,3,1.3,3,3.92,4.52,5.26.84-4.6-2.77-6.93-4.6-10.07-.64-1.1-1.07-.78-1.46,2.19-3.28-4.2-2.07-6.18,4.67-7.67-9.13-.24-9.13-.24-9-9.84a28.59,28.59,0,0,1,.38-5.3,19.51,19.51,0,0,1,1,9c-.38,3.19.2,5.39,4.08,3.57C68.78,193.71,71.2,194,73.58,194.08Z" transform="translate(-0.8 -1)"/><path class="cls-2" d="M135.84,203.46c2.33.19,3.74-1.61,5.44-2.77.91,1.08.08,1.82-.35,2.52-3.69,6-3.28,11.52,2.27,16a61.92,61.92,0,0,1,13.48,15.18c5.4,8.45,15.59,10.57,27.46,5.08,6.27-2.9,6.91-8,9-13.07a25.11,25.11,0,0,1,6.68-9.48c1.35-1.18,2.73,1.47,4.42,1.24A13.65,13.65,0,0,1,201,226.5c-.58.65-1.43,1.94-1.2,2.31,2.67,4.27-1.41,5.05-3.32,6.82a37.58,37.58,0,0,1-15.27,8.47c-12.62,3.64-18.81,1.54-27-9.1q-5.24-6.25-10.46-12.5c-5.08-3.8-7.06-9.44-8.67-15.29l-.15-.13A4.32,4.32,0,0,1,135.84,203.46Z" transform="translate(-0.8 -1)"/><path class="cls-2" d="M260.79,223.66c-1.68-.25-2.1,2.89-3.69,1.83-2.55-1.7-2.09-4.39-1.42-7.06,2.31-9.2,8.06-16.15,14.23-22.76,2-2.19,4.91-3.22,7.73-1.28,2.62,1.8,2.75,4.63,1.88,7.41-2.46,7.84-5,15.63-10.37,22.06-1.9,2.29-3.91,4.5-7.26,5,.21-2,2-2.07,2.56-3.3,4.6-6.54,6-14.23,7.45-21.9a2.37,2.37,0,0,0-1.6-2.52,2.07,2.07,0,0,0-2.61,1.21c-.74,1.3-1.6,2.58-1.32,4.26.52,3.16-1.6,5.88-2.32,8.67C263.4,217.83,261.77,220.78,260.79,223.66Z" transform="translate(-0.8 -1)"/><path class="cls-2" d="M146.87,133.12a13.85,13.85,0,0,0-5.9,1.61c-7.94,3.85-14.85.77-21.59-3.76,0,.75.08,1.52.12,2.3-5.85-6-10.25-12.6-7.48-22.08a3.92,3.92,0,0,0,.28-1.4c-.23-1.8,3.38-2.35,1.58-4-1.22-1.13-2.58,1.35-3.82,2.28-.53.4-1,.79-1.37,0-.47-1,.23-1.79.78-2.54l5-5.42c1.95,3.87,4.06,4.09,6.42.41.47-.72,1-1.89,2-1.37,1.21.61.49,1.9.64,2.91.57,3.76-1.67,6.75-2.12,10.27-.43,3.35-1.22,6.25.53,9.54a10.12,10.12,0,0,1,1.07,4.87c-.1,3.65,5.3,8.54,8.52,6.71,2.78-1.59,4.95-.63,7.16-.69,4.05-.11,6.72-3.82,10.6-3.8l.56.75C148.89,130.89,147.3,131.41,146.87,133.12Z" transform="translate(-0.8 -1)"/>
<path class="cls-2" d="M93.7,75.4c3.36.57,7.2.86,9.25,4.84a7.16,7.16,0,0,1-.62,7.82c-1.92,2.61-4.2,5.41-8.08,2.49-.2-.15-3.07-1.58-3.9,1.67C89.9,94,86.21,94,84,93.81s-3-2.28-3.25-4.4C80,83.29,87.27,75.21,93.7,75.4Z" transform="translate(-0.8 -1)"/>
<path class="cls-2" d="M69.31,226.5c.43,2.07-.18,3.51-2.45,3.15-2.45-.39-4.69.18-7.88,1.44,2.11-3.24,4.82-2.71,7.24-3.23-2.16-2-6.29,2.65-6.88-3.1-.65,5.61-4.06,7.12-8.81,6.72-2.88-.24-5.68-1.11-6.19-4.26-.61-3.79,1.53-7,4.42-9,3.74-2.56,6.19,1.12,9,2.86.55-5.82-2.47-9-8.65-9.18C36.45,211.61,26,202.13,24.34,189c6.09,12.84,14.2,22.72,29.71,21.82a9.69,9.69,0,0,1,6.46,7.44c.78,3.49,2.66,5.19,6,5.42Z" transform="translate(-0.8 -1)"/>
<path class="cls-2" d="M198.34,77.94c3.61-4.1,8.76-5,13.17-2.73,4.82,2.5,7.58,7.63,6.65,12.36A14,14,0,0,1,205,99.31c-2,.16-3.83-.24-6,.59-3,1.14-7.29-3.11-7.59-6.66s-.07-7.22,2.24-10.37c1.84,1.22,1.2,2.7,1.06,4.22-.56,6.34,3.89,10.09,9.89,8.47.87-.23,1.75-.42,2.62-.64,1.41-.36,3.59,2.46,4.22-.78.45-2.37.5-5-2-6.56a3,3,0,0,1-1.54-3.38,6.33,6.33,0,0,0-7.14-6.81C200.1,77.52,199.43,77.69,198.34,77.94Z" transform="translate(-0.8 -1)"/>
<path class="cls-2" d="M132.32,255.87c8-2.12,14.83,1.45,22.39,4.57-1.2,1.15-4.29-.69-2.89,2.42.52,1.15-.11,2.46-.76,3.47-2.22,3.43-16.37,7.37-20.4,6.19-4.47-1.31-5.31-4.4-4.42-8.29.49-2.17.89-4.52,2.35-6.38Zm12,9.7c-3.74-1.94-7.31-3.9-11-5.66-1.71-.82-3.44-.89-4.55,1.25s.33,3.56,1.79,4.46C135,268.3,139.55,269.46,144.34,265.57Z" transform="translate(-0.8 -1)"/>
<path class="cls-2" d="M242.82,74.72c-.71-3.66.46-6.38,4-7.64s6.57-.82,9.26,2.31c4,4.67,6.38,10.25,9.08,15.65a5,5,0,0,1-.2,5.25c-1.35,1.79-3.31,1.12-4.95.46a65.09,65.09,0,0,1-14.8-8.39c-1.48-1.13-2.25-2.4-1.62-4.29,5.93,2.3,12.08,4.17,16.79,8.84.94.94,1.59,1.89,2.83.47s0-2-.76-2.57c-2.9-2.34-4.07-7.27-9.16-6.46a2.2,2.2,0,0,1-1.8-1.2C249.8,71.6,246.15,73.79,242.82,74.72Z" transform="translate(-0.8 -1)"/>
<path class="cls-2" d="M263.86,178.34c-.22,9.72-8.56,16.39-16.58,18.35-3,.73-6.51-3.07-5.81-6.4,1.5-7.11,4.67-13.36,10.57-17.78a7.47,7.47,0,0,1,6.38-1.37C262.33,172.05,264.32,174.5,263.86,178.34Zm-10-2.13c-4.21,0-5.34,3.72-7,6.37-1.34,2.15-3,4.84-1.18,7.7,1.58,2.5,3.91,3.59,6.56,2.18,3.34-1.78,5.36-4.55,4-8.69-.5-1.49-.91-2.88,0-4.33C258.07,176.25,255.1,176.87,253.84,176.21Z" transform="translate(-0.8 -1)"/>
<path class="cls-2" d="M67.58,77.18c-.61-6.72-6-6.1-9.35-8.33-1.37-.91-1.5.41-1.88,1.05-.92,1.54-2.14,3.3-.14,4.78,2.68,2,1.06,5.61,3.14,8,.49.56-1.38,2.84-3.51,2.11-3.13-1.06-6-6-5-9.2A93.55,93.55,0,0,1,55,64.63c1.79-3.8,4.91-5.87,9.15-4.94,4.09.89,5.19,4.32,5.34,8C69.63,70.54,69.94,73.49,67.58,77.18Z" transform="translate(-0.8 -1)"/>
<path class="cls-2" d="M38.18,115.32c.86,5.7-3.21,9.3-8.42,12-3.92,2-6.64.17-6.78-4.31-.05-1.37-.16-3.69.42-3.94,2-.83,1.36-2.44,1.69-3.75,1-3.94,4.85-7.33,8.71-7.59C36.79,107.47,38.24,109.62,38.18,115.32Z" transform="translate(-0.8 -1)"/>
<path class="cls-2" d="M263.16,125.85c3.31-4,3.67-8.79,3.68-13.71a11.89,11.89,0,0,1,.23-2.74c.64-2.74,1.48-5.63,4.5-6.33,3.36-.78,4.65,2.19,6,4.51,5,8.57,6.13,18,5.41,28.44-1.16-2.45-2.27-4.41-3-6.5-.81-2.29-.94-4.89-2-7-1.46-3-.45-8-5.93-8.26-1.18-.06-.43-1.74-.13-2.76s-.63-1.26-1.28-1.48c-.17-.06-.85.69-.8.78,1.64,3-1.2,5.09-1.85,7.51-1.27,4.75,2.09,9.35-.64,14.06-1.9-1-1-3.34-1.63-5C264.88,126.85,264,126.35,263.16,125.85Z" transform="translate(-0.8 -1)"/>
<path class="cls-2" d="M147.49,149.93c-1.23-3.17-4.05-5.55-5.27-8.26-1.06-2.35-2.79-5.61-1.9-8.9,1-3.67,3-6.1,8.19-6.69-3.38-.44-5,.78-6.75,1.37-1.49.5-2.46.37-1.75-1.62,2.79-1,5.41-2.67,8.55-2.45,1.09.08,2.12-.23,3.24.92,1.51,1.56,2.3.91,2.38-1.75,0-.15-.08-.37,0-.42,5.32-3.94,2.85-10.11,4-15.24.3-1.34.54-2.77,2.71-2.71,0,6.18-1.22,12.14-2.34,18.09-.14.75-1.05,1.5-1.79,1.94-3.67,2.17-6.33,5.89-10.89,6.75-3.1.58-3.89,2.66-2.71,5.85,1,2.62,3.15,4.86,5,4.83,5.63-.09,7.33,7.2,13.06,6.4-3,1.47-5.53.17-8.16-.69S147.89,145.91,147.49,149.93Z" transform="translate(-0.8 -1)"/>
<path class="cls-2" d="M100.84,223.6c3.24-5.54-4-2.34-4.08-5.12-.56.24-1.3.49-1.58-.19-2-4.93-5-3.89-8.16-1-.9-2.5.69-4,1.64-6.1-3.58,1.74-2.3,5.35-3.55,8.1-2-3-.92-5.59,0-8.11,1.36-3.74,4-1.46,6.31-1.6,4-.24,8-.7,11.83,1l2,1.24c2.35,4.2.88,7.76-1.75,11.16A1.92,1.92,0,0,1,100.84,223.6Z" transform="translate(-0.8 -1)"/>
<path class="cls-2" d="M158.06,247a31.39,31.39,0,0,0-9.19-2.33c-9.43-.85-17.45-5.77-25.94-9.31-2.38-1-1.7-4.42-3.54-6.07a1.64,1.64,0,0,1,.58-.94c.89-.34,1.6.08,2.44.57,3.69,2.2,7.48,4.22,11.25,6.29.26.15.64.36.83.27,3.9-1.91,6.66,1,8.58,3.18C147.26,243.34,154,242.57,158.06,247Z" transform="translate(-0.8 -1)"/>
<path class="cls-2" d="M114.53,100c-1.68,1.72-3.36,3.45-5,5.17a22,22,0,0,1-11,1.14c-6.65-1-12.91,4.05-14.47,11a7.54,7.54,0,0,1-1.93,4.22c1.09-12,6.71-17.74,18.32-17.74,6.66,0,11-3.24,14.43-8.5,2.2-3.36,4.74-6.33,8.48-8,.78-.34,1.66-.87,2.32.33.4.74.73,1.55-.25,1.85-5.11,1.59-5.5,6.36-6.9,10.47-.15.41-.49.74-1.33.85l1-6.5-.68-.27Z" transform="translate(-0.8 -1)"/>
<path class="cls-2" d="M148.42,187.79c-5.87,3.46-9.77,8.67-12.55,14.87-1.16,1.42-4.7.62-3.77,3.92.8,2.84-.73,5.13-1.23,7.66l-.85.5a3.58,3.58,0,0,1-2.51-1.89c1.42-1.74.13-2.93-.81-4.2-.2-4.14,1.36-7,5.4-8.41a9.66,9.66,0,0,0,5.68-5.52,4.4,4.4,0,0,1,.6-1.23c6.26-6.57,12.54-13.13,19.19-19.44C153.05,177.65,153.16,184.34,148.42,187.79Z" transform="translate(-0.8 -1)"/>
<path class="cls-2" d="M185.08,43.88c2.93,4.36,7.74,5.66,12.07,7.74,5.09,2.35,10.56,1.14,16.58,1.63-3.8,2.59-7.4,2.2-11,2.22,1.1.8,2.79,0,3.58,2-2.4,1.63-5.1.72-7.54.51-6.87-.57-14.2-7-14.83-12.57C183.77,44.33,183.59,43.49,185.08,43.88Z" transform="translate(-0.8 -1)"/>
<path class="cls-2" d="M116.94,208.25a16.93,16.93,0,0,0,.86-3.47c.24-7.41,2.64-13.55,9.35-17.27,7.53-.6,8.65-1.5,14.33-11.48.86,6.08-3.49,11.56-11,13.87-9.4,2.89-13,13-7.52,21.31A56.59,56.59,0,0,0,128,217l-.54.53-3-2h-2.75l-1.3-1.34v-.28l-.17-1.66,0-.07a3.86,3.86,0,0,0-3.51-3.09l.06.05Z" transform="translate(-0.8 -1)"/>
<path class="cls-2" d="M32.55,232.78a14.54,14.54,0,0,1-4.68-7.56c-1.75-6-3.61-11.78-8.46-16.09-1.55-1.37-.63-3.18.52-4.47,1.29-1.46,2.89-1.09,3.89.26,2,2.7,4.9,4.36,4.77,9s2.53,9.64,3.91,14.49C32.88,229.79,34.19,231.14,32.55,232.78Z" transform="translate(-0.8 -1)"/>
<path class="cls-2" d="M174.73,145.39c2.9,0,7,4.31,7,6.94,0,2.47-3.83,6.16-6.31,6.15-3.09,0-6.37-3.75-6.28-7.15C169.24,147.4,172.65,146.93,174.73,145.39Z" transform="translate(-0.8 -1)"/>
<path class="cls-2" d="M66.53,223.69c-3.36-.23-5.24-1.93-6-5.42a9.69,9.69,0,0,0-6.46-7.44c-2.31-1.61-5.21-1.2-7.65-2.36-.67-.32-1.56-.6-1.41-1.5.22-1.3,1.34-1,2.13-.81,3.61.91,7.32,1.07,11,1.64,5.28.83,7.16,5.4,8.31,10.21C67.81,219.86,67.45,221.77,66.53,223.69Z" transform="translate(-0.8 -1)"/><path class="cls-2" d="M99.19,101c10-4,11.47-6.8,9.75-18.33a19.19,19.19,0,0,1-.21-2.73c0-8.35,0-8.35-8.33-10.94a6.37,6.37,0,0,1-1.21-.75c6.94-.14,11.13,2.61,12.74,8.73a62.33,62.33,0,0,1,1.95,11.25C114.49,96.61,107.43,102.6,99.19,101Z" transform="translate(-0.8 -1)"/><path class="cls-2" d="M127,224.72c1.43,2.74,4.33,2.4,6.63,3.21,4.94,1.73,9.48,3.95,12.59,8.6-4.58-3.48-9.49-6.45-15.19-6.65-4.86-.17-8.53-3.61-13.18-4-.78-.07-.89-.7-1.07-1.26a37.9,37.9,0,0,0-5.12-9.63c-1.26-1.81-.2-2.42,1.44-2.65C117.37,216.91,120.72,222.54,127,224.72Z" transform="translate(-0.8 -1)"/><path class="cls-2" d="M263.16,125.85c.86.5,1.72,1,2.59,1.49-1.54,3.87-1.36,7.28,2.46,9.72-2,.84-1.8,2.5-.81,3.72,3,3.73,4.78,8.52,8.89,11.34.12,1-.34,1.5-1.25,1-7.3-4.17-12.7-9.95-14.34-18.62C260.11,131.33,260,128,263.16,125.85Z" transform="translate(-0.8 -1)"/><path class="cls-2" d="M276.29,152.12c-4.11-2.82-5.86-7.61-8.89-11.34-1-1.22-1.22-2.88.81-3.72,1.73.68,2.35,2,2.65,3.85.65,4,3.85,5.93,6.68,8.1.71.54,1.81.93,2.14-.37.24-.95-.68-1-1.45-1.2-2.46-.65-4.43-1.52-.29-2.93,1.09-.38.86-1.3.93-2.24.27-3.31,3.28-2.87,5-2.74,2.38.2,1.06,2.56.87,3.94C283.73,150.46,282.05,152.13,276.29,152.12Z" transform="translate(-0.8 -1)"/><path class="cls-2" d="M123.13,48.6c-1.47-.11-3.2.4-3.47-1.5-.19-1.35-.72-3.31,1.84-3.39,1.25,0,.45-1.22.69-1.84A7.65,7.65,0,0,1,129,36.73,4.22,4.22,0,0,1,133.54,39c1,1.88-.73,2.64-1.52,3.86C129.83,46.28,127.07,48.55,123.13,48.6Z" transform="translate(-0.8 -1)"/><path class="cls-2" d="M82,151.86c-2.49,4.42-6,8.3-6.95,13.53-4.79,6.66-1.87,18.2,3.24,24.49.79,1,2.36,1.47,1.86,3.28-2.06.15-2.58-1.85-3.85-2.74-4.46-4.09-6.07-9.17-5.37-15.22.24-2,.5-4.16-.78-6.19-1.11-1.75-.1-3.76.87-5.11C74.16,159.45,77.1,154.72,82,151.86Z" transform="translate(-0.8 -1)"/><path class="cls-2" d="M126.7,208.65c.94,1.27,2.23,2.46.81,4.2-4.45-3.69-6.59-8.16-4.6-14.08,1.54-4.56,5-7.27,10.1-7.61,1-.07,2.22-.68,2.74.69.37,1-.53,1.57-1.14,2.25a22,22,0,0,1-4.9,4.19C125.88,200.66,125.18,204.43,126.7,208.65Z" transform="translate(-0.8 -1)"/><path class="cls-2" d="M91.77,233.09c-4.54-.51-6.46-3.47-7.45-7.74-.56-2.4,1.35-3.49,2.26-4,1.52-.85,1.35,1.58,2.06,2.32,2.4,2.53,5.17,4.91,8.5,5.91,2.94.88,3.61-1.5,3.63-4,.57,1.43,3,1.64,2.36,3.87-.73,2.4-2.77,2.44-4.67,2.82C96.25,232.7,94.14,233.92,91.77,233.09Z" transform="translate(-0.8 -1)"/><path class="cls-2" d="M156.54,291.83c-9.73-.27-18.42-3.9-26.65-9.05,5.49,1.7,11,3.47,16.48,5.08a28.88,28.88,0,0,0,13.74.38,53.29,53.29,0,0,1,20.26-.23c-7.94,1.54-16.21.93-23.89,3.86Z" transform="translate(-0.8 -1)"/><path class="cls-2" d="M92.09,13.35c6.25-2.48,13-2.39,20.11-4-3.54,4.07-7.69,5.87-11.91,7.58-.69.28-1.39.55-2.08.84-6,2.53-6,2.53-6.81-3.67Z" transform="translate(-0.8 -1)"/><path class="cls-2" d="M143.4,285.15c13.6,1.55,26.92-3.63,40.48-1.69a2.37,2.37,0,0,0,1.69-.34c.68-.55.64-3,2.17-.81,1,1.42.3,2.65-1.15,3.32a7.57,7.57,0,0,1-4,.47,88.71,88.71,0,0,0-25.4,1A22.54,22.54,0,0,1,143.4,285.15Z" transform="translate(-0.8 -1)"/><path class="cls-2" d="M72.73,237.92c-3.13-1.8-6.7-.64-10.69-1.65,3.26-1.39,6.1-.38,9.15-1.24-6.52-.73-12.81,1.26-18.8-1.56,5,1.12,9.6-.64,14.24-1.72,5.62-1.3,7.83,3.54,11,6.21,1.77,1.51-.91,2.21-2.27,2.26-3.64.14-7.26.22-10,3.37C66.11,239.37,69.78,239.14,72.73,237.92Z" transform="translate(-0.8 -1)"/><path class="cls-2" d="M66.53,223.69c.92-1.92,1.28-3.83-.15-5.68-.41-7.31-3.72-10.83-10.69-11.53a38.73,38.73,0,0,1-6.8-1.4c12-1.61,18.58,1.74,20.08,11.89.84,5.69,3.82,10.42,7.74,16.06-4.12-1.58-5.07-4.89-7.4-6.53C68.38,225.57,67.46,224.63,66.53,223.69Z" transform="translate(-0.8 -1)"/><path class="cls-2" d="M13.59,177a6.85,6.85,0,0,0-1.1-4c-.49-6.22-2.15-12.44-.14-18.68.18-.55.12-1.26,1.44-1.46-2.37,14.55,5.41,27.52,5,41.9Z" transform="translate(-0.8 -1)"/><path class="cls-2" d="M126.47,224.8c-6.66-2.11-10.22-7.57-14.75-12l.27-.14,1.49.24q.38.21.72.45a1,1,0,0,0,.36.33l.62.49,1.58.72.94.88.94.88c.33.32.67.63,1,.94l.9.84,0,0-.89-.84-1-.93-1-.88-1-.86a1.74,1.74,0,0,1-.38-.52l.68-.75,1.55.35.08.08.76.56,1.39,1.29a20.7,20.7,0,0,0,8.15,5.95c.11.13.23.26.34.4,2.08,1.53,5,2.18,6.4,4.92-3.43.74-5.4-1.56-7.88-2.43l-1.57-.94c-.29-.3-.59-.59-.89-.89l-2-.89-.93-.88v0c.29.3.59.59.89.89l2,.89.91.88.37.92Z" transform="translate(-0.8 -1)"/><path class="cls-2" d="M132.24,219c.33,2-.58,3-2.53,3l-.31-.4-1.94-4.13L128,217c4.14,2.46.62-2.2,2-2.28l.85-.5c1.62.41,2.22,1.77,3,3.12a14,14,0,0,0,6.3,6.22l.38.28,2.29,1.54.41.36a1.83,1.83,0,0,0,.48.48l.45.4,5,5.1.37.53.12,1.71c-5.55-5.28-12.93-8.33-17.34-15Z" transform="translate(-0.8 -1)"/><path class="cls-2" d="M143.69,222.5q5.24,6.24,10.46,12.5c.37,1.38.74,2.76,1.1,4.15l-.5.32-3.49-4.74-1.75-2.46-.37-.53a10,10,0,0,0-5-5.1l-.45-.4a1.38,1.38,0,0,0-.48-.48l-.41-.36-2.29-1.54-.38-.28c-2.76-3.37-7.16-5.9-5.79-12.5C136.32,216.71,139.25,220.3,143.69,222.5Z" transform="translate(-0.8 -1)"/><path class="cls-2" d="M220.39,149.11l0,0Z" transform="translate(-0.8 -1)"/><path class="cls-2" d="M113.35,211.75l-1.64-.56v-1.42l.31-.26-.28.26c-2.85.95-2.81-1.86-2.87-3-.12-2.06,2.19-2.82,3.64-3.21,2.08-.55,1.44,1.57,1.58,2.76-.92-.31-1.87-.74-2.7.29.66,1.11,1.9,1,2.87,1.43l-.14-1.66,2.82,1.86-.12.9-.06-.05a3.86,3.86,0,0,1,3.51,3.09l-.23.15-.69.57-2.4-1.17h0l1.19,1.45-.64.77-1.15-.18-.58-.51a.51.51,0,0,0-.34-.33c-.22-.17-.45-.32-.68-.47Z" transform="translate(-0.8 -1)"/><path class="cls-2" d="M124.46,215.54h0Z" transform="translate(-0.8 -1)"/><path class="cls-2" d="M120.42,213.92l-.73-.3-.08-.07c-.08-.22-.17-.43-.26-.64l.69-.57.21-.08Z" transform="translate(-0.8 -1)"/><path class="cls-2" d="M107.49,200l12.7,8.47v4.23l-2,5.57-6.49-1.33s0-8.47-4.23-8.47S107.49,200,107.49,200Z" transform="translate(-0.8 -1)"/></svg>