<svg xmlns="http://www.w3.org/2000/svg" width="182" height="120" viewBox="0 0 182 120">
  <defs>
    <style>
      .cls-1 {
        fill: #fff;
        fill-rule: evenodd;
      }
    </style>
  </defs>
  <path id="Kehlani" class="cls-1" d="M810.748,102.848a0.234,0.234,0,1,0-.459.08c0,0.012,0,.024,0,0.033a35.085,35.085,0,0,1-2.028,7.366,26.272,26.272,0,0,1-1.964,3.759c-0.09.146-.182,0.292-0.282,0.427a3.388,3.388,0,0,1-2.226,1.4c-1.082.055-1.585-1.732-1.861-2.785-1-3.812-.942-8.118-1.04-12.091a29.628,29.628,0,0,0-.271-4.252c-0.417-2.489-2.253-4.38-4.153-3.066-1.8,1.242-2.007,3.971-2.225,6.3a43.213,43.213,0,0,0-.063,7.986c0,0.244.018,0.487,0.027,0.731-0.247,1-.512,1.983-0.811,2.964a14.371,14.371,0,0,1-2.175,4.49,5.259,5.259,0,0,1-1.476,1.369,1.026,1.026,0,0,1-.658.152h0c-1.369-.615-1.542-2.64-1.666-4.043-0.164-1.914-.27-3.844-0.335-5.767-0.139-4.045.167-8.061,0.27-12.1,0.082-3.056-.179-6.472-2.256-8.751-1.6-1.757-4.46-3.244-6.319-1.207-2.308,2.523-2.476,7.218-2.955,10.523a113.437,113.437,0,0,1-2.414,12.919c-0.02.086-.042,0.174-0.07,0.262-0.174.651-.37,1.3-0.576,1.936a9.305,9.305,0,0,1-.475,1.139,2.661,2.661,0,0,1-.641.666,37.513,37.513,0,0,1,.355-5.9,61.094,61.094,0,0,0,.017-6.807,24.286,24.286,0,0,0-.615-5.363,7.332,7.332,0,0,0-4.412-4.51c-1.827-.705-2.668,1.346-3.008,2.9a31.65,31.65,0,0,0-.571,4.863l0.227,8.844c0.006,0.336.007,0.635,0.01,0.919-0.035.065-.061,0.132-0.09,0.2-0.955,1.827-2.554,4.877-4.891,4.909-1.847.03-2.8-2.3-2.931-3.832-0.1-1.189.074-2.405,0.07-3.593,0-2.221-1.021-4.111-3.5-3.9-0.069.01-.132,0.015-0.2,0.029a2.566,2.566,0,0,0-1.762,2.025,28.022,28.022,0,0,0-.822,4.513c-0.057.217-.117,0.43-0.187,0.644a10.271,10.271,0,0,1-3.329,5.292c-2.244,1.675-3.169-1.539-3.338-3.224a22.082,22.082,0,0,1,.524-6.325c0.733-3.748,2.076-7.88,5.243-10.269,2.013-1.517,2.554.912,2.276,2.465a8.873,8.873,0,0,1-1.26,3.288,5.214,5.214,0,0,1-.368.445,2.893,2.893,0,0,0,.24.177,3.387,3.387,0,0,0,2.733.7,4.485,4.485,0,0,0,2.665-2.057,7.239,7.239,0,0,0,.415-7.284,5.587,5.587,0,0,0-5.39-2.8,9.559,9.559,0,0,0-5.542,2.758c-3.66,3.269-6.063,8.023-7.394,12.7a23.848,23.848,0,0,0-.692,9.817,16.994,16.994,0,0,0,1.754,6.3,5.765,5.765,0,0,1-2.953,2.986c-1.805.547-2.916-1.909-3.455-3.437a34.434,34.434,0,0,1-1.629-8.547A65.658,65.658,0,0,0,735.844,98.4a86.782,86.782,0,0,0,3.265-20.562,34.108,34.108,0,0,0-.617-9.9,13.38,13.38,0,0,0-4.317-7.452c-4.963-4.078-6.9,5.091-7.819,8.86a122.935,122.935,0,0,0-2.835,22.462,189.125,189.125,0,0,0-.242,23.687c0.006,0.131.015,0.261,0.029,0.4-0.944,2.093-2.692,5.043-4.533,2.965a8.98,8.98,0,0,1-1.485-4.045,50.809,50.809,0,0,1-.928-6.139c-0.152-1.91-.231-3.856-0.193-5.777,0.037-1.8.2-3.588,0.085-5.391a7.247,7.247,0,0,0-4.45-6.454c-2.336-1.093-3.959.177-4.948,2.584a75.9,75.9,0,0,0-3.143,10.637c-0.954,3.878-1.527,7.859-2.419,11.74a1.87,1.87,0,0,1-.3.656c-0.47-1.326-.178-3.215-0.16-4.539,0.039-2.353.157-4.706,0.328-7.052,0.325-4.556.721-9.188,1.373-13.7,0.569-3.89,2.468-7.374,3.544-11.1a22.083,22.083,0,0,0,.622-9.406,11.3,11.3,0,0,0-4.02-6.894c-0.723-.606-1.737-1.325-2.693-1.045-1.155.338-1.679,1.435-2.045,2.625a37.024,37.024,0,0,0-.755,4.546c-0.4,2.222-.7,4.467-1,6.707-0.56,4.25-.956,8.5-1.3,12.779-0.471,5.869-1.055,11.876-1.116,17.833a8.329,8.329,0,0,0-2.85-2.937c-1.032-.628-3.633-1.773-4.581-0.378a2.115,2.115,0,0,0-.29.639c-0.379,1.451.7,3.308,0.624,4.738a3.58,3.58,0,0,1-3.713,3.236,4.683,4.683,0,0,1-4.171-2.254c0.38-.348.75-0.707,1.13-1.046,1.136-1.02,2.289-2.018,3.394-3.075a23.31,23.31,0,0,0,5.12-6.823c1.732-3.69.222-9.017-3.482-10.534-3.589-1.471-7.711.5-10.048,3.5-2.459,3.161-3.422,7.464-3.6,11.5a22.157,22.157,0,0,0,.416,5.323c-0.638.372-1.281,0.723-1.93,1.047-0.748.374-1.764,0.474-2.631,0.792a8.828,8.828,0,0,0-1.415-.806c-2.81-1.281-6.084-1.227-8.611-2.982,1.286-2.057,2.582-4.108,3.927-6.13,1.985-2.975,3.963-5.932,5.767-9.04,3.655-6.307,6.908-12.824,10.952-18.883,1.879-2.816,3.762-5.641,5.718-8.4a64.9,64.9,0,0,0,3.836-5.506,7.256,7.256,0,0,0,1.093-5.528c-0.4-1.351-1.735-2.843-3.179-2.787-2.37.092-4.18,3.3-5.3,5.079-1.686,2.681-3.081,5.487-4.919,8.07-3.381,4.763-6.659,9.61-10.287,14.174-1.672,2.1-3.311,4.232-4.839,6.452a33.091,33.091,0,0,0-1.9,3.062,0.245,0.245,0,0,1-.017.024c0.715-5.29,1.443-10.587,1.854-15.9,0.127-1.672.22-3.345,0.349-5.017a5.094,5.094,0,0,0-.481-3.143,19.085,19.085,0,0,1-1.512-4.86c-0.4-1.8-.748-3.623-1.111-5.439a28.819,28.819,0,0,1-.483-5.066,2.454,2.454,0,0,0-1.752-2.424c-2.264-.71-3.012,2.907-3.144,4.433-0.113,1.331-.034,2.678-0.061,4.017-0.044,1.8-.24,3.6-0.375,5.4-0.285,3.739-.476,7.49-0.782,11.229-0.235,2.871-.633,5.719-0.9,8.585-0.28,3.015-.462,6.038-0.743,9.057-0.125,1.354-.266,2.709-0.41,4.062-0.159,1.509-.327,3.02-0.483,4.53-0.122,1.2-.239,2.422-0.294,3.642a40.611,40.611,0,0,1-2.909,4.432,71.9,71.9,0,0,1-4.9,5.594c-1.735,1.833-3.3,3.839-5.106,5.588-1.547,1.5-3.506,2.438-4.894,4.136-1.947,2.384-.11,5.414,1.832,7.077a11.116,11.116,0,0,0,6.466,2.8,4.625,4.625,0,0,0,.577,0c0.073-.122.151-0.242,0.232-0.36a17.2,17.2,0,0,1,3.218-3.415c1.216-1.052,2.322-2.3,3.551-3.348-1.2,6.177-2.423,12.348-3.331,18.593-0.54,3.708-.986,7.442-1.344,11.181a10.431,10.431,0,0,0,.165,4.418,8.444,8.444,0,0,0,2.275,3.183,17.286,17.286,0,0,0,6.727,4.557,9.213,9.213,0,0,0,5.5.162,2.021,2.021,0,0,0,1.325-1.355c0.307-1.033-.492-1.907-1.091-2.624-1.091-1.313-1.307-3.363-1.56-5.012a57.906,57.906,0,0,1-.287-6c-0.125-2.778-.351-5.539-0.384-8.319-0.036-2.966.189-5.9,0.406-8.847q0.315-4.252.681-8.505c0.206-2.369.588-4.775,0.735-7.165q0.6-.453,1.209-0.888a10.254,10.254,0,0,1,1.9-1.019c1.086,1.95,1.994,4.015,3.04,5.987a26.8,26.8,0,0,0,4.33,5.931,20.092,20.092,0,0,0,11.209,5.818,27.389,27.389,0,0,0,12.2-.281,19.271,19.271,0,0,0,4.319-1.737c0.713-.411,1.667-1.1,1.448-2.084a0.28,0.28,0,0,0-.255-0.214c-0.11,0-.22-0.007-0.325-0.008-0.036,0-.071,0-0.1,0-2.341-.03-4.661.268-6.989,0.407a18.767,18.767,0,0,1-7.057-.927,13.907,13.907,0,0,1-9.189-9.288c-0.314-1.088-.575-2.2-0.9-3.282a0.27,0.27,0,0,1-.021-0.073,8.1,8.1,0,0,0,3-1.192c1.319,4.248,3.719,7.943,8,9.154a11.388,11.388,0,0,0,13.04-6.9,15.524,15.524,0,0,0,3.245,7.658c1.253,1.6,3.017,3.095,4.753,2.283,1.914-.885,1.636-4.835,1.852-6.664a85.8,85.8,0,0,1,2.285-12.355v0c0.521-1.9,1.234-3.669,1.865-5.517a6.764,6.764,0,0,1,.926-1.868c0.743-.978.74,0.67,0.735,0.829-0.019.4-.111,0.792-0.159,1.183-0.238,1.845-.169,3.819-0.272,5.681-0.121,2.21-.14,4.437-0.056,6.646a29.9,29.9,0,0,0,1.9,9.831c0.917,2.349,2.406,4.707,4.536,5.793s4.334,0.119,5.992-1.5a12.536,12.536,0,0,0,2.657-4.076c1.522,6.722,4.539,13.176,10.433,9.563,3.411-2.087,5.181-6.764,6.6-10.771a5.394,5.394,0,0,0,2.378-.1c1.99-.543,3.366-2.364,4.353-4.075a27.405,27.405,0,0,0,2.588-6.813c0.117,2.626.634,5.265,2.362,7.213,2.133,2.4,5.258,2.173,7.519.155a11.747,11.747,0,0,0,2.666-3.744c0.006,0.055.014,0.112,0.025,0.164a13.591,13.591,0,0,0,4.85,7.689c1.879,1.532,3.723.324,4.615-1.73a67.291,67.291,0,0,0,2.709-8.331c1.228-4.349,1.949-8.88,2.859-13.318,0.2-.984.409-1.963,0.665-2.935a14.257,14.257,0,0,1,.586-1.712,1.5,1.5,0,0,1,.651-0.889,0.543,0.543,0,0,1,.376.466c0.74,2.094.11,4.865-.168,6.984a106.77,106.77,0,0,0-1.067,12.386A20.917,20.917,0,0,0,781,123.654a7.955,7.955,0,0,0,5.9,4.923c3.167,0.582,5.475-2.018,6.8-4.862,0.6-1.3,1.13-2.65,1.615-4.04a12.476,12.476,0,0,0,2.362,6.1,4.8,4.8,0,0,0,5.575,1.052c3.421-1.422,5.387-6.282,6.417-10.364A36.7,36.7,0,0,0,810.748,102.848Zm-132.526,1.525c-0.329.319-.663,0.633-1.01,0.939a14.384,14.384,0,0,1,.249-4.1,9.032,9.032,0,0,1,1.645-3.563c0.664-.871,2.169-2.18,2.62-0.462C682.452,99.98,679.92,102.706,678.222,104.373Zm51-6.975c0.06-3.994.506-7.916,0.961-11.869,0.42-3.642.938-7.266,1.7-10.836,0.17-.8.36-1.62,0.588-2.428a14.718,14.718,0,0,1,1.153-2.951c0.8-1.486,1.4.956,1.564,1.667a31.354,31.354,0,0,1,.426,9.05,93.788,93.788,0,0,1-1.52,11.056,75.6,75.6,0,0,1-4.621,15.729C729.287,103.68,729.187,100.541,729.226,97.4Zm80.015,8.894c0.051,0,.05-0.1,0-0.1S809.2,106.289,809.241,106.292ZM795.6,80.892a2.594,2.594,0,0,0-.722,2.047,2.64,2.64,0,0,0,.4,1.218,3.071,3.071,0,0,0,.952.941,3.2,3.2,0,0,0,2.447.335,5.184,5.184,0,0,0,2.126-1.152,2.865,2.865,0,0,0,.966-1.606,3.039,3.039,0,0,0-.021-1.348,3.32,3.32,0,0,0-.346-0.872,5.341,5.341,0,0,0-.97-1.232c-0.381-.374-0.8-0.707-1.212-1.042-0.523-.432-1.047-0.86-1.587-1.275,0.145,0.115.293,0.229,0.442,0.344-0.053-.043-0.1-0.082-0.154-0.126a2.383,2.383,0,0,0-.724-0.476,0.735,0.735,0,0,0-.071-0.047,1.925,1.925,0,0,0-.54-0.246,1.949,1.949,0,0,0-1.034,0,1.985,1.985,0,0,0-1.419,1.893A3.064,3.064,0,0,0,795.6,80.892Zm2.269,1.435c-0.012.073-.013,0.053,0,0h0Z" transform="translate(-629 -46)"/>
</svg>
