<svg xmlns="http://www.w3.org/2000/svg" viewBox="0 0 32 40" x="0px" y="0px"><title>microphone, mic, audio, music, sound</title><g data-name="Layer 2"><path d="M16,22a6,6,0,0,0,6-6V8A6,6,0,0,0,10,8v8A6,6,0,0,0,16,22ZM12,8a4,4,0,0,1,8,0v8a4,4,0,0,1-8,0Z"/><path d="M25,15a1,1,0,0,0-1,1A8,8,0,0,1,8,16a1,1,0,0,0-2,0,10,10,0,0,0,9,9.95V28H11a1,1,0,0,0,0,2H21a1,1,0,0,0,0-2H17V25.95A10,10,0,0,0,26,16,1,1,0,0,0,25,15Z"/></g><text x="0" y="47" fill="#000000" font-size="5px" font-weight="bold" font-family="'Helvetica Neue', Helvetica, Arial-Unicode, Arial, Sans-serif">Created by Fauzan Adiima</text><text x="0" y="52" fill="#000000" font-size="5px" font-weight="bold" font-family="'Helvetica Neue', Helvetica, Arial-Unicode, Arial, Sans-serif">from the Noun Project</text></svg>